<svg width="200" height="41" viewBox="0 0 200 41" fill="none" xmlns="http://www.w3.org/2000/svg">
<rect width="200" height="41" rx="8" fill="#F6861F"/>
<path d="M17.0019 17.0662C16.7077 17.1493 16.4383 17.3032 16.2171 17.5143C15.996 17.7255 15.8298 17.9875 15.7331 18.2776L13 26.4766L13.4304 26.9069L17.8281 22.5092C17.7405 22.3258 17.6875 22.1231 17.6875 21.9063C17.6875 21.1296 18.3171 20.5 19.0937 20.5C19.8704 20.5 20.5 21.1296 20.5 21.9063C20.5 22.6829 19.8704 23.3125 19.0937 23.3125C18.8769 23.3125 18.6742 23.2595 18.4908 23.1719L14.0931 27.5696L14.5234 28L22.7224 25.2669C23.0125 25.1702 23.2745 25.004 23.4857 24.7829C23.6968 24.5617 23.8507 24.2923 23.9338 23.9981L25.1874 19.5625L21.4375 15.8126L17.0019 17.0662ZM27.588 15.173L25.827 13.412C25.2777 12.8627 24.3868 12.8627 23.8374 13.412L22.1807 15.0687L25.9313 18.8193L27.588 17.1626C28.1373 16.6132 28.1373 15.7226 27.588 15.173Z" fill="white"/>
</svg>
