<svg xmlns="http://www.w3.org/2000/svg" xmlns:xlink="http://www.w3.org/1999/xlink" width="345.044" height="281.698" viewBox="0 0 345.044 281.698">
  <defs>
    <linearGradient id="linear-gradient" y1="0.5" x2="1" y2="0.5" gradientUnits="objectBoundingBox">
      <stop offset="0" stop-color="#1c2f37"/>
      <stop offset="1" stop-color="#28424c"/>
    </linearGradient>
    <linearGradient id="linear-gradient-3" x1="0.591" y1="0.725" x2="0.418" y2="0.212" xlink:href="#linear-gradient"/>
    <linearGradient id="linear-gradient-4" x1="0.502" y1="0.437" x2="0.512" y2="1.051" gradientUnits="objectBoundingBox">
      <stop offset="0" stop-color="#ea5757"/>
      <stop offset="1" stop-color="#ffad97"/>
    </linearGradient>
    <linearGradient id="linear-gradient-5" x1="0.268" y1="0.83" x2="0.769" y2="0.363" gradientUnits="objectBoundingBox">
      <stop offset="0" stop-color="#f47b67"/>
      <stop offset="1" stop-color="#ffad97"/>
    </linearGradient>
    <linearGradient id="linear-gradient-6" x1="0.425" y1="0.926" x2="0.565" y2="0.206" xlink:href="#linear-gradient-5"/>
    <linearGradient id="linear-gradient-7" x1="0.316" y1="0.988" x2="0.514" y2="0.346" xlink:href="#linear-gradient-5"/>
    <linearGradient id="linear-gradient-8" x1="0.484" y1="0.945" x2="0.509" y2="0.317" xlink:href="#linear-gradient-5"/>
    <linearGradient id="linear-gradient-9" x1="0.841" y1="0.502" x2="0.096" y2="0.497" gradientUnits="objectBoundingBox">
      <stop offset="0"/>
      <stop offset="1" stop-color="#575962"/>
    </linearGradient>
    <linearGradient id="linear-gradient-10" x1="0.5" y1="0.982" x2="0.5" y2="0.058" gradientUnits="objectBoundingBox">
      <stop offset="0" stop-color="#c5d7e7"/>
      <stop offset="0.004" stop-color="#c5d7e7"/>
      <stop offset="0.205" stop-color="#dbe6f1"/>
      <stop offset="0.396" stop-color="#e9eef6"/>
      <stop offset="0.566" stop-color="#eef2f9"/>
      <stop offset="0.79" stop-color="#ebf0f7"/>
      <stop offset="0.89" stop-color="#e4e9f3"/>
      <stop offset="0.965" stop-color="#d7deec"/>
      <stop offset="1" stop-color="#cfd7e7"/>
    </linearGradient>
    <linearGradient id="linear-gradient-11" x1="0.5" y1="0.96" x2="0.5" y2="0.085" xlink:href="#linear-gradient"/>
    <linearGradient id="linear-gradient-12" x1="0.5" y1="0.95" x2="0.5" y2="0.056" xlink:href="#linear-gradient"/>
    <linearGradient id="linear-gradient-13" x1="0.841" y1="0.5" x2="0.137" y2="0.5" gradientUnits="objectBoundingBox">
      <stop offset="0" stop-color="#ff9e52"/>
      <stop offset="1" stop-color="#ffe172"/>
    </linearGradient>
    <linearGradient id="linear-gradient-14" x1="0.755" y1="0.477" x2="0.22" y2="0.512" xlink:href="#linear-gradient-13"/>
    <linearGradient id="linear-gradient-15" x1="0.417" y1="0.5" x2="0.91" y2="0.5" xlink:href="#linear-gradient-4"/>
    <linearGradient id="linear-gradient-16" x1="0.587" y1="0.822" x2="0.406" y2="0.039" xlink:href="#linear-gradient-5"/>
    <linearGradient id="linear-gradient-18" y1="0.5" x2="1" y2="0.5" gradientUnits="objectBoundingBox">
      <stop offset="0" stop-color="#ffad97"/>
      <stop offset="1" stop-color="#f47b67"/>
    </linearGradient>
    <linearGradient id="linear-gradient-22" x1="0.5" y1="0.366" x2="0.5" y2="0.999" xlink:href="#linear-gradient-4"/>
    <linearGradient id="linear-gradient-23" x1="0.787" y1="0.819" x2="0.332" y2="0.302" xlink:href="#linear-gradient-5"/>
  </defs>
  <g id="confirm-vector" transform="translate(-189.603 -154.118)">
    <g id="Group_20" data-name="Group 20">
      <path id="Path_2647" data-name="Path 2647" d="M93,0a93,93,0,0,1,0,186c-51.362,0-125,13.362-125-38S41.638,0,93,0Z" transform="translate(323 244)" fill="#f8f8f8"/>
      <g id="Group_19" data-name="Group 19">
        <g id="Group_17" data-name="Group 17" transform="translate(130 -2)">
          <path id="Path_26" data-name="Path 26" d="M245.432,303.936v131.88h-14.81v-7.44h-63.71v7.44H152.1V303.936Z" fill="#efefef"/>
          <rect id="Rectangle_28" data-name="Rectangle 28" width="77" height="28.963" transform="translate(160.267 386.31)" fill="#dbdbdb"/>
          <rect id="Rectangle_29" data-name="Rectangle 29" width="77" height="28.963" transform="translate(160.267 351.525)" fill="#dbdbdb"/>
          <rect id="Rectangle_30" data-name="Rectangle 30" width="77" height="28.963" transform="translate(160.267 316.74)" fill="#dbdbdb"/>
          <rect id="Rectangle_31" data-name="Rectangle 31" width="31.667" height="5" transform="translate(182.934 322.073)" fill="#efefef"/>
          <rect id="Rectangle_32" data-name="Rectangle 32" width="31.667" height="5" transform="translate(182.934 356.74)" fill="#efefef"/>
          <rect id="Rectangle_33" data-name="Rectangle 33" width="31.667" height="5" transform="translate(182.934 391.406)" fill="#efefef"/>
        </g>
        <g id="Group_18" data-name="Group 18" transform="translate(130 -2)">
          <rect id="Rectangle_34" data-name="Rectangle 34" width="32" height="79.077" transform="translate(84.73 356.74)" fill="#dbdbdb"/>
          <path id="Path_27" data-name="Path 27" d="M93.4,337.406s-22-.5-22.5-24.5-15.75-21.75-10-46.25a25.164,25.164,0,0,1,18.5,18.008c5.25,19.272,13.124,14.992,17.374,29.242C99.717,323.784,93.4,337.406,93.4,337.406Z" fill="#efefef"/>
          <path id="Path_28" data-name="Path 28" d="M99.573,300.387s-19.794-9.615-10.255-31.643S84.055,242.41,99.484,222.53a25.163,25.163,0,0,1,9.322,24.075c-3.251,19.708,5.69,19.1,3.62,33.821C110.992,290.634,99.573,300.387,99.573,300.387Z" fill="#efefef"/>
          <path id="Path_29" data-name="Path 29" d="M111.741,343.581S97.264,331.265,110,314.9s1.285-23.16,18.483-36.455a21.735,21.735,0,0,1,2.6,22.148c-6.975,15.781.635,17.2-4.276,29.068C123.4,337.89,111.741,343.581,111.741,343.581Z" fill="#efefef"/>
          <path id="Path_30" data-name="Path 30" d="M99.729,374.906a1,1,0,0,1-.991-.877c-7.537-60.865-28.422-88.481-28.632-88.753a1,1,0,0,1,1.582-1.224c.213.275,21.423,28.26,29.034,89.731a1,1,0,0,1-.869,1.115A.873.873,0,0,1,99.729,374.906Z" fill="#dbdbdb"/>
          <path id="Path_31" data-name="Path 31" d="M101.9,367.006a1,1,0,0,1-1-.93c-3.958-55.806-2.188-111.15-2.169-111.7a1.014,1.014,0,0,1,1.032-.966,1,1,0,0,1,.966,1.033c-.018.551-1.785,55.795,2.165,111.5a1,1,0,0,1-.927,1.067C101.944,367.005,101.919,367.006,101.9,367.006Z" fill="#dbdbdb"/>
          <path id="Path_32" data-name="Path 32" d="M106.731,369.073l-.062,0a1,1,0,0,1-.937-1.058c1.659-27.539,16.938-60.37,17.093-60.7a1,1,0,1,1,1.81.849c-.152.325-15.271,32.816-16.907,59.97A1,1,0,0,1,106.731,369.073Z" fill="#dbdbdb"/>
        </g>
      </g>
    </g>
    <g id="Group_41" data-name="Group 41">
      <rect id="Rectangle_36" data-name="Rectangle 36" width="2.5" height="14.924" transform="translate(442.085 269.078)" fill="#ecf1f8"/>
      <g id="Group_30" data-name="Group 30">
        <g id="Group_23" data-name="Group 23">
          <g id="Group_21" data-name="Group 21">
            <path id="Path_33" data-name="Path 33" d="M317,284.664s10.252,46.463,10.547,56.461-3.75,74.106-3.75,74.106H302.4l-2-61.174a19.192,19.192,0,0,0-1.221-7.957l-11.519-30.265V284.664Z" fill="url(#linear-gradient)"/>
            <path id="Path_34" data-name="Path 34" d="M318.759,415.258l-.881-.054c.04-.647,3.924-64.717,3.346-69.912s-13.908-56.907-14.043-57.428l.855-.221c.55,2.132,13.481,52.287,14.065,57.551S318.92,412.614,318.759,415.258Z" fill="#365660"/>
          </g>
          <g id="Group_22" data-name="Group 22">
            <path id="Path_35" data-name="Path 35" d="M264.025,284.664s-1.176,62.049-1.176,74.106v56.461h22.938l15.291-130.567Z" fill="url(#linear-gradient)"/>
            <path id="Path_36" data-name="Path 36" d="M280.345,415.272l-.879-.083,6.469-68.519,2.646-58.937.881.04-2.647,58.959Z" fill="#365660"/>
          </g>
        </g>
        <g id="Group_24" data-name="Group 24">
          <path id="Path_37" data-name="Path 37" d="M305.828,181.556s5.837-5.188,3.411-14.394-7.73-6.338-7.73-6.338-5.393-9.153-16.531-4.632-15.006,18.306-10.04,26.577,5.336,13.869,10,11.676S305.828,181.556,305.828,181.556Z" fill="url(#linear-gradient-3)"/>
          <path id="Path_38" data-name="Path 38" d="M281.89,186.353A56.171,56.171,0,0,1,283.1,197.6s7.995,9.316,13.84,8.37c5.065-.82,4.466-6.663,4.466-6.663s-1.433-1.433-.772-6.727Z" fill="url(#linear-gradient-4)"/>
          <path id="Path_39" data-name="Path 39" d="M305.33,175.764s3.357,20.622-7.009,23.158c-6.422,1.571-14.115-1.544-16.431-10.862,0,0-4.852-.827-3.97-5.79s4.963-2.977,5.294.993c0,0,5-.4,3.569-7.571,0,0,9,1.836,12.751-8.53C299.534,167.162,300.809,174.771,305.33,175.764Z" fill="url(#linear-gradient-5)"/>
        </g>
        <g id="Group_25" data-name="Group 25">
          <path id="Path_40" data-name="Path 40" d="M267.64,415.231v4.907s-4.167,8.106-2.461,15.678h10.775l2.171-2.279,2.558,2.279h11.566c6.9,0,11.3-1.4-.061-7.129s-10.885-8.236-10.885-8.236l-.31-5.22Z"/>
          <path id="Path_41" data-name="Path 41" d="M281.3,420.451s-7.326,2.72-13.663,0v-5.22h13.353Z" fill="#3f5b63"/>
        </g>
        <g id="Group_26" data-name="Group 26">
          <path id="Path_42" data-name="Path 42" d="M305.947,415.231v4.907s-4.167,8.106-2.461,15.678h10.775l2.17-2.279,2.559,2.279h11.566c6.9,0,11.3-1.4-.061-7.129s-10.885-8.236-10.885-8.236l-.31-5.22Z"/>
          <path id="Path_43" data-name="Path 43" d="M319.61,420.451s-7.326,2.72-13.663,0v-5.22H319.3Z" fill="#3f5b63"/>
        </g>
        <g id="Group_28" data-name="Group 28">
          <path id="Path_44" data-name="Path 44" d="M363.124,222.759s-1.226,2.329-3.229,5.858c-5.928,10.472-18.632,31.5-26.14,33.586-.847.238-1.658.423-2.426.564-8.337,1.509-12.227-2.337-14.521-5.161l.044,6.026v.009l.82,24.112h-53.7s-1.168-20.425-2.5-33.216c-.106-1.033-.212-2.065-.309-3.106-1.138-12.033-3.573-24.164-2.355-31.354.035-.22.079-.432.123-.644a11.438,11.438,0,0,1,1.227-3.511,22.263,22.263,0,0,1,14.785-10.851c1.624-.379,3.194-.618,4.676-.838l24.773-.291s1.085.379,2.779,1.173c3.872,1.809,9.2,3.5,13.63,9.943,4.561,6.616,10.533,23.032,10.533,23.032l17.927-21.056,4.314-4.12Z" fill="#cc6639"/>
          <path id="Path_45" data-name="Path 45" d="M331.329,262.767c-8.337,1.509-12.227-2.337-14.521-5.161l.044,6.026c-.017-.609-.688-27.79,0-41.164C316.852,222.468,319.155,253.4,331.329,262.767Z" fill="#037ffe" opacity="0.35" style="mix-blend-mode: multiply;isolation: isolate"/>
          <path id="Path_46" data-name="Path 46" d="M307.166,205.115c-.433,6.167-2.312,9.681-9.617,10.59-10.515,1.314-17.141-5.323-20.987-11.013a23.122,23.122,0,0,1,3.052-.459l24.773-.291S305.472,204.321,307.166,205.115Z" fill="#bbbcc0"/>
          <path id="Path_47" data-name="Path 47" d="M283.1,197.6a10.34,10.34,0,0,0-3.492,6.633L295.2,214.455l.919-8.528A25.783,25.783,0,0,1,283.1,197.6Z" fill="#d0deec"/>
          <path id="Path_48" data-name="Path 48" d="M298.582,205.455l2.827,8.221c1.821-2.658,3.321-5.543,2.978-9.734a10.109,10.109,0,0,0-2.978-4.632S301.158,204.158,298.582,205.455Z" fill="#dbdbdb"/>
          <path id="Path_49" data-name="Path 49" d="M363.124,222.759s-1.226,2.329-3.229,5.858l-10.639-11.583,3.808-4.642Z" fill="#f5933a"/>
          <path id="Path_50" data-name="Path 50" d="M316.852,263.632v.009s-14.3,8.231-31.212,4.993c-8.84-1.685-17.715-8.231-24.173-14.1-.106-1.033-.212-2.065-.309-3.106-1.138-12.033-3.573-24.164-2.355-31.354.035-.22.079-.432.123-.644l14.513-4.975c9.135,8.8,17.29,17.863,23.375,27.465l15.843,3.262,2.978,10.957Z" fill="#037ffe" opacity="0.35" style="mix-blend-mode: multiply;isolation: isolate"/>
          <path id="Path_51" data-name="Path 51" d="M334.6,256.724s-2.787,1.13-7.084,2.506c-9.6,3.088-26.757,7.446-37.317,3.379-15.3-5.885-30.736-28.381-32.06-37.785s7.5-17.062,15.3-10.366,20.14,30.357,20.14,30.357l32.042-.953,7.508-.221Z" fill="#c35a2c"/>
          <path id="Path_52" data-name="Path 52" d="M334.6,256.724s-2.787,1.13-7.084,2.506l-1.9-15.368,7.508-.221Z" fill="#f5933a"/>
          <path id="Path_53" data-name="Path 53" d="M309.636,208.494c-.053.282-.115.573-.194.891a12.323,12.323,0,0,1-1.553,3.688c-.159.247-.327.494-.512.741a11.136,11.136,0,0,1-3.423,2.99c-.247.141-.5.283-.776.406a15.09,15.09,0,0,1-3.926,1.244q-.423.08-.873.132a22.472,22.472,0,0,1-3.106.2c-.529,0-1.058-.017-1.561-.044-.3-.017-.591-.035-.882-.061a24.168,24.168,0,0,1-4.711-.892c-.292-.088-.574-.176-.847-.273a22.113,22.113,0,0,1-4.147-1.906q-.4-.225-.767-.476a22.775,22.775,0,0,1-3.388-2.664c-.22-.2-.432-.415-.635-.618a25.024,25.024,0,0,1-2.7-3.255c-.176-.265-.353-.521-.5-.759a18.274,18.274,0,0,1-1.359-2.47l2.788-.679s.538.811,1.526,1.993c.185.221.4.459.609.715.608.679,1.332,1.447,2.161,2.214.212.212.432.406.653.6a26.629,26.629,0,0,0,3.193,2.471c.247.167.5.326.759.485a21.572,21.572,0,0,0,2.761,1.429c.274.114.547.22.83.318a15.635,15.635,0,0,0,4.181.961,7.521,7.521,0,0,0,.891.053,14,14,0,0,0,2.621-.141c.379-.053.741-.115,1.094-.194.3-.053.582-.115.855-.186a14.938,14.938,0,0,0,3.238-1.182,8.082,8.082,0,0,0,.768-.441,9.473,9.473,0,0,0,2.531-2.188c.186-.238.362-.485.521-.723a9.271,9.271,0,0,0,1.182-2.77c.08-.318.133-.626.177-.909a8.069,8.069,0,0,0,.053-2.082l2.664,1.191A11.352,11.352,0,0,1,309.636,208.494Z" fill="#f5933a"/>
          <g id="Group_27" data-name="Group 27">
            <path id="Path_54" data-name="Path 54" d="M278.7,207.4l-3.062,1.2c-.176-.265-.353-.521-.5-.759l2.955-1.156C278.273,206.906,278.485,207.144,278.7,207.4Z" fill="#cc6639"/>
            <path id="Path_55" data-name="Path 55" d="M280.858,209.614c.212.212.432.406.653.6l-2.541,2.259c-.22-.2-.432-.415-.635-.618Z" fill="#cc6639"/>
            <path id="Path_56" data-name="Path 56" d="M285.463,213.17l-2.338,2.443q-.4-.225-.767-.476l2.346-2.452C284.951,212.852,285.207,213.011,285.463,213.17Z" fill="#cc6639"/>
            <path id="Path_57" data-name="Path 57" d="M288.224,214.6c.274.114.547.22.83.318l-.935,2.875c-.292-.088-.574-.176-.847-.273Z" fill="#cc6639"/>
            <path id="Path_58" data-name="Path 58" d="M294.126,215.931l-.414,2.814c-.3-.017-.591-.035-.882-.061l.4-2.806A7.521,7.521,0,0,0,294.126,215.931Z" fill="#cc6639"/>
            <path id="Path_59" data-name="Path 59" d="M298.7,215.41l.556,3.044q-.423.08-.873.132l-.538-2.99C298.14,215.543,298.423,215.481,298.7,215.41Z" fill="#cc6639"/>
            <path id="Path_60" data-name="Path 60" d="M303.954,216.8c-.247.141-.5.283-.776.406l-1.244-2.982a8.082,8.082,0,0,0,.768-.441Z" fill="#cc6639"/>
            <path id="Path_61" data-name="Path 61" d="M305.754,210.876l2.135,2.2c-.159.247-.327.494-.512.741l-2.144-2.215C305.419,211.361,305.6,211.114,305.754,210.876Z" fill="#cc6639"/>
            <path id="Path_62" data-name="Path 62" d="M309.636,208.494c-.053.282-.115.573-.194.891l-2.506-1.279c.08-.318.133-.626.177-.909Z" fill="#cc6639"/>
          </g>
        </g>
        <g id="Group_29" data-name="Group 29">
          <path id="Path_63" data-name="Path 63" d="M353.96,213.316l2.23-2.482s.853-9.043,3.445-11.193,3.2-.276,2.647,2.7-.331,4.587,1.984,3.672,2.868-2.495,4.3-6.2,3.639-5.744,4.963-2.05,3.639,6.727,2.481,10.311-7,8.822-11.91,9.539l-2.024,4.065-8.507-8.767" fill="url(#linear-gradient-6)"/>
          <path id="Path_64" data-name="Path 64" d="M333.264,244.843l3.58-.432s7.536-4.593,9.6-3.637-4.117,4.338-2.941,5.661,5.514.22,6.91-.662,2.868-2.1,4.044-1.822.368,9.934-4.852,11.478-12.425-.687-12.425-.687l-2.754.372Z" fill="url(#linear-gradient-7)"/>
        </g>
      </g>
      <g id="Group_40" data-name="Group 40">
        <path id="Path_65" data-name="Path 65" d="M511.265,206.588l2.47-3.749s-.918-7.647,2.216-10.476c2.261-2.04,2.577.775,2.448,3.371-.2,3.965,4.72,2.032,6.485-2.709s4.852-7.389,5.514-5.514a16.648,16.648,0,0,0,3.639,6.34c2.205,2.427-1.979,10.26-6,12.962a21.128,21.128,0,0,1-6.014,2.863l-2.027,3.478Z" fill="url(#linear-gradient-8)"/>
        <g id="Group_33" data-name="Group 33">
          <g id="Group_31" data-name="Group 31">
            <path id="Path_66" data-name="Path 66" d="M415.324,285.252l5.955,129.979h21.952l7.235-104.983V281.687H419.588Z" fill="url(#linear-gradient-9)"/>
          </g>
          <g id="Group_32" data-name="Group 32">
            <path id="Path_68" data-name="Path 68" d="M442.716,284,462.6,415.231h22.5l-6.984-138.8Z" fill="#233a44"/>
          </g>
        </g>
        <g id="Group_35" data-name="Group 35">
          <path id="Path_70" data-name="Path 70" d="M431.425,284h30.657V206.536l-6.4-8.329H438.659l-7.234,6.947Z" fill="url(#linear-gradient-10)"/>
          <path id="Path_71" data-name="Path 71" d="M452.377,195.285" fill="#fff" stroke="#d1202d" stroke-miterlimit="10" stroke-width="1"/>
          <path id="Path_72" data-name="Path 72" d="M522.019,214.917s-1.015,1.817-2.717,4.649c-5.611,9.36-18.65,29.81-26.784,32.015a14.684,14.684,0,0,1-8.39-.194,21.731,21.731,0,0,1-9.581-6.678,1.685,1.685,0,0,1-.115-.141l.459,2.523v.026l6.237,34.574c-7.693,6.881-15.862,10.93-24.56,11.795,0,0-1.4-10.137-2.665-22.964-.6-6.184-1.173-12.995-1.526-19.6-1.1-20.29,2.391-49.774,2.391-49.774l-2.514-5.505.123-.353a1.682,1.682,0,0,1,1.818.353,30.227,30.227,0,0,0,12.739,7.42c7.348,1.985,10.568,4.225,12.792,8.231,2.5,4.534,5.478,10.127,7.366,13.709l.027.053c1.138,2.153,1.87,3.564,1.87,3.564l.044-.053,4.482-5.575,11.936-14.848,3.608-4.49Z" fill="url(#linear-gradient-11)"/>
          <path id="Path_73" data-name="Path 73" d="M435.906,271.484c.247,13.171.45,22.884.45,22.884a46.991,46.991,0,0,1-22.8-7.719l1.835-40.379a.069.069,0,0,0,.009-.026l.079-1.835a33.318,33.318,0,0,1-6.334,3.829,32.384,32.384,0,0,1-3.308,1.358c-4.358,1.509-27.075,4.393-37.741,6.855-3.379.785-5.549,1.279-5.549,1.279l-.186-1.12-2.876-17.133h.009l5.117-1.235,33.321-8.054s17.018-22.382,21.208-25.029,13.383-4.2,13.383-4.2,2.082-3.467,3.829-2.753a16.928,16.928,0,0,0-1.4,2.576,11.413,11.413,0,0,0-.08,1.58C434.768,210.382,435.421,246.941,435.906,271.484Z" fill="url(#linear-gradient-12)"/>
          <path id="Path_74" data-name="Path 74" d="M453.912,270.531l-.009-.009c-.6-6.184-1.173-12.995-1.526-19.6-1.1-20.29,2.391-49.774,2.391-49.774a28.63,28.63,0,0,1,3.008,4.014c1,1.765,3.644,15.88,3.529,17.644s-6.537,4.853-6.537,4.853,7.755,12.792,8.857,15.985S453.912,270.531,453.912,270.531Z" fill="#3f5b63"/>
          <path id="Path_75" data-name="Path 75" d="M435.906,271.484c-3.44-5.117-10.763-16.251-11.318-19.171-.733-3.82,5.919-22.937,5.919-22.937s-3.714-2.206-4.3-3.67,4.27-16.471,5.152-18.826a13.7,13.7,0,0,1,3.511-4.553l.009.036C434.768,210.382,435.421,246.941,435.906,271.484Z" fill="#3f5b63"/>
          <path id="Path_76" data-name="Path 76" d="M448.654,261.682a2.8,2.8,0,0,1-.044.38,7.687,7.687,0,0,1-.344,1.067,32.431,32.431,0,0,1-2.2,4.349c-.255.442-.511.865-.758,1.262-.962,1.57-1.756,2.744-1.756,2.744a66.224,66.224,0,0,1-5.584-6.282,7.877,7.877,0,0,1-1.138-1.932,1.26,1.26,0,0,1-.044-.273,44.818,44.818,0,0,1,.167-5.329c.035-.5.08-1.023.124-1.579.106-1.561.255-3.317.414-5.2.044-.511.088-1.041.141-1.57.142-1.659.3-3.4.477-5.17.044-.521.088-1.041.141-1.57.159-1.7.326-3.432.5-5.161.053-.521.1-1.041.159-1.562.167-1.746.344-3.476.511-5.161q.08-.794.159-1.561c.185-1.8.362-3.529.529-5.143.062-.539.115-1.059.168-1.562.212-1.976.4-3.723.547-5.143.062-.574.115-1.094.168-1.553.167-1.57.264-2.479.264-2.479l3.767-.353s.177,1.923.459,5c.044.538.1,1.1.15,1.7.141,1.667.318,3.582.494,5.655.044.556.1,1.12.141,1.7.159,1.8.327,3.7.485,5.637.053.565.1,1.129.15,1.7.15,1.87.309,3.758.459,5.637l.132,1.694c.151,1.923.292,3.811.424,5.611.044.582.088,1.146.132,1.7.141,2.02.265,3.909.371,5.585.035.582.062,1.147.088,1.676A53.679,53.679,0,0,1,448.654,261.682Z" fill="url(#linear-gradient-13)"/>
          <g id="Group_34" data-name="Group 34" style="mix-blend-mode: soft-light;isolation: isolate">
            <path id="Path_77" data-name="Path 77" d="M445.637,219.6l-4.808-2.32c.062-.574.115-1.094.168-1.553l4.49,2.17C445.531,218.436,445.584,219,445.637,219.6Z" fill="#f4deae"/>
            <path id="Path_78" data-name="Path 78" d="M446.272,226.959l-6.158-2.973c.062-.539.115-1.059.168-1.562l5.849,2.832C446.175,225.812,446.228,226.376,446.272,226.959Z" fill="#f4deae"/>
            <path id="Path_79" data-name="Path 79" d="M446.907,234.3l-7.481-3.609q.08-.794.159-1.561l7.172,3.467C446.81,233.161,446.854,233.725,446.907,234.3Z" fill="#f4deae"/>
            <path id="Path_80" data-name="Path 80" d="M447.5,241.63l-8.742-4.217c.053-.521.1-1.041.159-1.562l8.451,4.085Z" fill="#f4deae"/>
            <path id="Path_81" data-name="Path 81" d="M448.054,248.943l-9.942-4.8c.044-.521.088-1.041.141-1.57l9.669,4.667C447.966,247.823,448.01,248.387,448.054,248.943Z" fill="#f4deae"/>
            <path id="Path_82" data-name="Path 82" d="M448.513,256.2l-11.019-5.32c.044-.511.088-1.041.141-1.57l10.79,5.214C448.46,255.11,448.487,255.675,448.513,256.2Z" fill="#f4deae"/>
            <path id="Path_83" data-name="Path 83" d="M448.654,261.682a2.8,2.8,0,0,1-.044.38,7.687,7.687,0,0,1-.344,1.067l-11.31-5.461c.035-.5.08-1.023.124-1.579Z" fill="#f4deae"/>
            <path id="Path_84" data-name="Path 84" d="M446.069,267.478c-.255.442-.511.865-.758,1.262l-7.34-3.538a7.877,7.877,0,0,1-1.138-1.932,1.26,1.26,0,0,1-.044-.273Z" fill="#f4deae"/>
          </g>
          <path id="Path_85" data-name="Path 85" d="M444.878,206.809s-5.072-.937-5.127.662,1.268,7.278,3.253,7.443S447.966,206.588,444.878,206.809Z" fill="url(#linear-gradient-14)"/>
          <path id="Path_86" data-name="Path 86" d="M454.766,201.148l-8.858,10.145-3.455-7.646,9.8-8Z" fill="#fafafc"/>
          <path id="Path_87" data-name="Path 87" d="M442.452,203.648l-2.481,8.454-5.1-7.719.087-3.6,1.4-2.573Z" fill="#fafafc"/>
          <path id="Path_88" data-name="Path 88" d="M367.914,255.331c-3.378.785-5.549,1.279-5.549,1.279L359.5,239.477l5.117-1.235Z" fill="#3f5b63"/>
          <path id="Path_89" data-name="Path 89" d="M522.019,214.917s-1.015,1.817-2.717,4.649l-13.851-11.425,3.608-4.49Z" fill="#3f5b63"/>
          <path id="Path_90" data-name="Path 90" d="M484.128,251.387a21.731,21.731,0,0,1-9.581-6.678l-3.573-25.143S482.584,238.4,484.128,251.387Z" fill="#1d3039"/>
          <path id="Path_91" data-name="Path 91" d="M492.368,234.669l-3.335-6.105,4.482-5.575C494.573,228.6,492.368,234.669,492.368,234.669Z" fill="#1d3039"/>
          <path id="Path_92" data-name="Path 92" d="M415.4,246.244l.079-1.835a33.318,33.318,0,0,1-6.334,3.829c-.415-11.028,7.5-24.667,7.5-24.667Z" fill="#1d3039"/>
        </g>
        <g id="Group_36" data-name="Group 36">
          <path id="Path_93" data-name="Path 93" d="M361.721,252.807l-3.59,1.421c-7.9,7.031-17.653,1.279-17.653,1.279a21.091,21.091,0,0,0,9.122-.08c5.222-1.543,6.025-11.2,4.852-11.477s-2.647.944-4.041,1.826-5.734,1.985-6.916.662c-.882-1,2.417-3.176,3.2-4.588a6.378,6.378,0,0,1,.988-.344,14.089,14.089,0,0,1,8.09.741l4.045-.8Z" fill="url(#linear-gradient-15)"/>
          <path id="Path_94" data-name="Path 94" d="M353.965,241.656s-3.128,5.151-7.524,5.333-4.028-2.594,1.247-5.48A12.777,12.777,0,0,1,353.965,241.656Z" fill="url(#linear-gradient-16)"/>
        </g>
        <g id="Group_37" data-name="Group 37">
          <path id="Path_95" data-name="Path 95" d="M425.8,415.231v3.86s-.883,5.4-9.7,6.726c-5.7.855-8.678,3.731-10.078,5.662a1.159,1.159,0,0,0,.944,1.837H441.68V415.231Z" fill="url(#linear-gradient)"/>
          <rect id="Rectangle_37" data-name="Rectangle 37" width="15.88" height="3.86" transform="translate(425.801 415.231)" fill="url(#linear-gradient-18)"/>
        </g>
        <g id="Group_38" data-name="Group 38">
          <path id="Path_96" data-name="Path 96" d="M482.4,415.231v18.085l-8.593.088-19.5.2c-.944,0-1.111-.9-.944-1.835a7.9,7.9,0,0,1,4.332-5.566l.238-.106a.028.028,0,0,0,.018-.009,6.943,6.943,0,0,1,.7-.274c8.505-2.708,7.861-6.722,7.861-6.722v-3.864Z" fill="url(#linear-gradient)"/>
          <rect id="Rectangle_38" data-name="Rectangle 38" width="15.88" height="3.86" transform="translate(466.517 415.231)" fill="url(#linear-gradient-18)"/>
          <path id="Path_97" data-name="Path 97" d="M473.806,433.4l-19.5.2c-.944,0-1.111-.9-.944-1.835a7.9,7.9,0,0,1,4.332-5.566l.238-.106a.028.028,0,0,0,.018-.009C458.526,425.95,470.454,423.1,473.806,433.4Z" fill="#3f5b63"/>
        </g>
        <g id="Group_39" data-name="Group 39">
          <path id="Path_98" data-name="Path 98" d="M451.933,191.142s8.834-15.087,7.281-21.861c-1.281-5.59-5.955-4.487-5.955-4.487s.955-6.617-4.65-8.712-8.693,1.875-16.082-1.1-8.27,2.537-5.954,4.852c0,0-6.4-1.323-6.066,4.632s4.3,6.4,4.3,6.4a7.623,7.623,0,0,0,4.632,9.373C436.167,183.1,451.933,191.142,451.933,191.142Z" fill="url(#linear-gradient)"/>
          <path id="Path_99" data-name="Path 99" d="M451.377,183.4l.879,12.242-9.8,8-6.1-5.441s1.319-4.116.069-7.572S451.377,183.4,451.377,183.4Z" fill="url(#linear-gradient-22)"/>
          <path id="Path_100" data-name="Path 100" d="M427.161,171.006s-.074,23.158,9.63,24.187,13.969-6.837,14.63-12.093c0,0,3.75,1.066,3.309-4.3s-4.485-3.235-4.411.882c0,0-2.5,1.323-2.794-4.191s1.1-7.131-7.131-5.734S428.956,171.717,427.161,171.006Z" fill="url(#linear-gradient-23)"/>
        </g>
      </g>
    </g>
  </g>
</svg>
