<svg xmlns="http://www.w3.org/2000/svg" width="38.784" height="38" viewBox="0 0 38.784 38">
  <g id="group-meeting" transform="translate(0 -4.589)">
    <circle id="XMLID_245_" cx="3.095" cy="3.095" r="3.095" transform="translate(17.395 4.589)" fill="#868aa8"/>
    <path id="XMLID_1285_" d="M291.289,290.775v.2a2.415,2.415,0,0,1,.3.013l3.182.351v-1.658a.614.614,0,0,0-.3-.525,2.138,2.138,0,0,1-2.072,1.622h-1.116Z" transform="translate(-266.418 -260.267)" fill="#868aa8"/>
    <path id="XMLID_1286_" d="M153.973,101l.044-8.845a.288.288,0,0,1,.577,0v9.316a2.464,2.464,0,0,1,.686,1.626h7.252c0-.325-.006-.567-.01-1.014l-1.9-1.156a2.48,2.48,0,0,1,1.879-4.527c0-1.163,0-2.558,0-4.24a.312.312,0,0,1,.625-.006l.023,4.506c.085.049-.272-.168,3,1.824l-.032-6.345a3.541,3.541,0,0,0-3.534-3.516h-1.573c-.2.511-1.6,4.288-1.809,4.836l.436-2.056a.616.616,0,0,0-.063-.424l-.6-1.09.533-.944a.217.217,0,0,0-.19-.321h-1.462a.217.217,0,0,0-.19.321l.533.944-.6,1.094a.615.615,0,0,0-.064.416l.382,2.06c-.191-.489-1.543-4.3-1.75-4.836h-1.6a3.541,3.541,0,0,0-3.533,3.516l-.044,8.675,1.661-.1A2.466,2.466,0,0,1,153.973,101Z" transform="translate(-138.095 -76.864)" fill="#868aa8"/>
    <path id="XMLID_1287_" d="M253.826,312.99v-.215l-.489-1.087a2.373,2.373,0,0,1,.489-2.653v-.889h-1.71v8.444h1.452a2.127,2.127,0,0,1,1.462.581v-1.72l-.3-.658A2.246,2.246,0,0,1,253.826,312.99Z" transform="translate(-230.59 -277.637)" fill="#868aa8"/>
    <rect id="XMLID_1340_" width="0.759" height="8.444" transform="translate(16.499 30.508)" fill="#868aa8"/>
    <path id="XMLID_1342_" d="M294.791,251.582l-1.01-.616,0,.613C294.721,251.579,294.706,251.577,294.791,251.582Z" transform="translate(-268.697 -225.341)" fill="#868aa8"/>
    <circle id="XMLID_1353_" cx="2.963" cy="2.963" r="2.963" transform="translate(3.238 13.346)" fill="#868aa8"/>
    <circle id="XMLID_1355_" cx="2.866" cy="2.866" r="2.866" transform="translate(29.717 13.667)" fill="#868aa8"/>
    <path id="XMLID_1358_" d="M279.719,193.083a.943.943,0,0,0-.943.943v9.389h-1.543l.656-9.965a1.849,1.849,0,0,0-1.722-1.966l-3.291-.218a1.849,1.849,0,0,0-1.91,1.375l2.683-.483-3.643,1.7-3.663-2.232a1.24,1.24,0,1,0-1.291,2.118l4.23,2.578a1.24,1.24,0,0,0,1.17.065L274.7,194.4c-4.031,3.365-3.812,3.214-4.1,3.344l-.27,4.065,3.083.34-6.267.479a1.488,1.488,0,0,0-1.244,2.094l3.47,7.719a1.488,1.488,0,0,0,2.714-1.22l-2.6-5.787c2.341-.179.3-.137,9.3-.137v1.827h-6.11v-1.748l-1.71.459,1.71,3.8v-.631h6.11v2.807a.943.943,0,0,0,1.885,0V194.026A.943.943,0,0,0,279.719,193.083Z" transform="translate(-241.878 -170.733)" fill="#868aa8"/>
    <path id="XMLID_1359_" d="M22.978,208.576H20.246V197.571h5.741a.854.854,0,0,0,0-1.708H15.044a1.24,1.24,0,0,0-.414-2.43l-4.281.267L7.92,190.5l1.941,1.517-.109-1.637a1.849,1.849,0,0,0-1.967-1.722l-3.29.218a1.849,1.849,0,0,0-1.722,1.967l.572,8.62a1.492,1.492,0,0,0,.943,1.515h-2.4v-9.389a.943.943,0,1,0-1.885,0v17.861a.943.943,0,0,0,1.885,0v-2.822h3.74l1.711-1.885H1.885v-1.879H8.864l1.291.532-4.264,4.7a1.488,1.488,0,1,0,2.2,2l5.687-6.268a1.488,1.488,0,0,0-.535-2.376l-5.812-2.394,2.932.609,3.33.691a2.368,2.368,0,0,1,.769.307l-.331-1.412a1.491,1.491,0,0,0-1.449-1.148H10.264l-.044-.664-.822.051a1.637,1.637,0,0,1-1.612-1.009l-1.843-4.483,2.831,3.733a1.24,1.24,0,0,0,1.065.488l2.556-.159a.852.852,0,0,0-.078,1.247h0a.851.851,0,0,0,.619.267h5.6v11.006H16.325l-.3-1.281-.791-3.373a27.366,27.366,0,0,1-2.418,2.724l.653,2.782a1.486,1.486,0,0,0,2.361.834c.157.035-.443.022,7.148.022h0a.854.854,0,1,0,0-1.708Z" transform="translate(0 -168.344)" fill="#868aa8"/>
  </g>
</svg>
