<svg xmlns="http://www.w3.org/2000/svg" xmlns:xlink="http://www.w3.org/1999/xlink" width="505" height="241" viewBox="0 0 505 241">
  <defs>
    <filter id="Rectangle_25" x="-9" y="-9" width="523" height="259" filterUnits="userSpaceOnUse">
      <feOffset input="SourceAlpha"/>
      <feGaussianBlur stdDeviation="3" result="blur"/>
      <feFlood flood-opacity="0.161"/>
      <feComposite operator="in" in2="blur"/>
      <feComposite in="SourceGraphic"/>
    </filter>
    <clipPath id="clip-path">
      <g transform="matrix(1, 0, 0, 1, 0, 0)" filter="url(#Rectangle_25)">
        <rect id="Rectangle_25-2" data-name="Rectangle 25" width="505" height="241" transform="translate(547 159)" fill="#fff"/>
      </g>
    </clipPath>
  </defs>
  <g id="Mask_Group_9" data-name="Mask Group 9" transform="translate(-547 -159)" clip-path="url(#clip-path)">
    <g id="Group_6" data-name="Group 6" transform="translate(-26 -454)">
      <text id="الإجتماعات" transform="translate(1052 775)" fill="#333" font-size="16" font-family="SegoeUI-Bold, Segoe UI" font-weight="700"><tspan x="-69.477" y="0">الإجتماعات</tspan></text>
      <text id="مجموع_الإجتماعات_التي_تم_إنشاؤها" data-name="مجموع الإجتماعات التي تم إنشاؤها" transform="translate(1052 797)" fill="#868aa8" font-size="14" font-family="Kawak-Regular, Kawak"><tspan x="-193.24" y="0"> </tspan><tspan y="0"> </tspan><tspan y="0"> </tspan><tspan y="0"> </tspan><tspan y="0" font-family="SegoeUI, Segoe UI">مجموع الإجتماعات التي تم إنش</tspan></text>
      <text id="_500" data-name="+500" transform="translate(1052 711)" fill="#868aa8" font-size="22" font-family="Kawak-Bold, Kawak" font-weight="700"><tspan x="-54.296" y="0">+500</tspan></text>
      <g id="group-meeting" transform="translate(1010 642.411)">
        <circle id="XMLID_245_" cx="3.095" cy="3.095" r="3.095" transform="translate(17.395 4.589)" fill="#868aa8"/>
        <path id="XMLID_1285_" d="M291.289,290.775v.2a2.415,2.415,0,0,1,.3.013l3.182.351v-1.658a.614.614,0,0,0-.3-.525,2.138,2.138,0,0,1-2.072,1.622h-1.116Z" transform="translate(-266.418 -260.267)" fill="#868aa8"/>
        <path id="XMLID_1286_" d="M153.973,101l.044-8.845a.288.288,0,0,1,.577,0v9.316a2.464,2.464,0,0,1,.686,1.626h7.252c0-.325-.006-.567-.01-1.014l-1.9-1.156a2.48,2.48,0,0,1,1.879-4.527c0-1.163,0-2.558,0-4.24a.312.312,0,0,1,.625-.006l.023,4.506c.085.049-.272-.168,3,1.824l-.032-6.345a3.541,3.541,0,0,0-3.534-3.516h-1.573c-.2.511-1.6,4.288-1.809,4.836l.436-2.056a.616.616,0,0,0-.063-.424l-.6-1.09.533-.944a.217.217,0,0,0-.19-.321h-1.462a.217.217,0,0,0-.19.321l.533.944-.6,1.094a.615.615,0,0,0-.064.416l.382,2.06c-.191-.489-1.543-4.3-1.75-4.836h-1.6a3.541,3.541,0,0,0-3.533,3.516l-.044,8.675,1.661-.1A2.466,2.466,0,0,1,153.973,101Z" transform="translate(-138.095 -76.864)" fill="#868aa8"/>
        <path id="XMLID_1287_" d="M253.826,312.99v-.215l-.489-1.087a2.373,2.373,0,0,1,.489-2.653v-.889h-1.71v8.444h1.452a2.127,2.127,0,0,1,1.462.581v-1.72l-.3-.658A2.246,2.246,0,0,1,253.826,312.99Z" transform="translate(-230.59 -277.637)" fill="#868aa8"/>
        <rect id="XMLID_1340_" width="0.759" height="8.444" transform="translate(16.499 30.508)" fill="#868aa8"/>
        <path id="XMLID_1342_" d="M294.791,251.582l-1.01-.616,0,.613C294.721,251.579,294.706,251.577,294.791,251.582Z" transform="translate(-268.697 -225.341)" fill="#868aa8"/>
        <circle id="XMLID_1353_" cx="2.963" cy="2.963" r="2.963" transform="translate(3.238 13.346)" fill="#868aa8"/>
        <circle id="XMLID_1355_" cx="2.866" cy="2.866" r="2.866" transform="translate(29.717 13.667)" fill="#868aa8"/>
        <path id="XMLID_1358_" d="M279.719,193.083a.943.943,0,0,0-.943.943v9.389h-1.543l.656-9.965a1.849,1.849,0,0,0-1.722-1.966l-3.291-.218a1.849,1.849,0,0,0-1.91,1.375l2.683-.483-3.643,1.7-3.663-2.232a1.24,1.24,0,1,0-1.291,2.118l4.23,2.578a1.24,1.24,0,0,0,1.17.065L274.7,194.4c-4.031,3.365-3.812,3.214-4.1,3.344l-.27,4.065,3.083.34-6.267.479a1.488,1.488,0,0,0-1.244,2.094l3.47,7.719a1.488,1.488,0,0,0,2.714-1.22l-2.6-5.787c2.341-.179.3-.137,9.3-.137v1.827h-6.11v-1.748l-1.71.459,1.71,3.8v-.631h6.11v2.807a.943.943,0,0,0,1.885,0V194.026A.943.943,0,0,0,279.719,193.083Z" transform="translate(-241.878 -170.733)" fill="#868aa8"/>
        <path id="XMLID_1359_" d="M22.978,208.576H20.246V197.571h5.741a.854.854,0,0,0,0-1.708H15.044a1.24,1.24,0,0,0-.414-2.43l-4.281.267L7.92,190.5l1.941,1.517-.109-1.637a1.849,1.849,0,0,0-1.967-1.722l-3.29.218a1.849,1.849,0,0,0-1.722,1.967l.572,8.62a1.492,1.492,0,0,0,.943,1.515h-2.4v-9.389a.943.943,0,1,0-1.885,0v17.861a.943.943,0,0,0,1.885,0v-2.822h3.74l1.711-1.885H1.885v-1.879H8.864l1.291.532-4.264,4.7a1.488,1.488,0,1,0,2.2,2l5.687-6.268a1.488,1.488,0,0,0-.535-2.376l-5.812-2.394,2.932.609,3.33.691a2.368,2.368,0,0,1,.769.307l-.331-1.412a1.491,1.491,0,0,0-1.449-1.148H10.264l-.044-.664-.822.051a1.637,1.637,0,0,1-1.612-1.009l-1.843-4.483,2.831,3.733a1.24,1.24,0,0,0,1.065.488l2.556-.159a.852.852,0,0,0-.078,1.247h0a.851.851,0,0,0,.619.267h5.6v11.006H16.325l-.3-1.281-.791-3.373a27.366,27.366,0,0,1-2.418,2.724l.653,2.782a1.486,1.486,0,0,0,2.361.834c.157.035-.443.022,7.148.022h0a.854.854,0,1,0,0-1.708Z" transform="translate(0 -168.344)" fill="#868aa8"/>
      </g>
      <g id="group-meeting-2" data-name="group-meeting" transform="translate(533 661.411)" opacity="0.03">
        <circle id="XMLID_245_2" data-name="XMLID_245_" cx="17.183" cy="17.183" r="17.183" transform="translate(96.588 4.589)" fill="#716aca"/>
        <path id="XMLID_1285_2" data-name="XMLID_1285_" d="M291.289,298.157v1.1a13.416,13.416,0,0,1,1.671.072l17.669,1.946v-9.208a3.41,3.41,0,0,0-1.642-2.915,11.872,11.872,0,0,1-11.5,9h-6.194Z" transform="translate(-153.188 -149.652)" fill="#716aca"/>
        <path id="XMLID_1286_2" data-name="XMLID_1286_" d="M167.565,157.345l.247-49.112a1.6,1.6,0,0,1,3.2.008v51.726a13.682,13.682,0,0,1,3.809,9.03h40.265c-.014-1.8-.034-3.148-.055-5.629L204.5,156.95a13.771,13.771,0,0,1,10.435-25.137c-.006-6.458-.01-14.2-.011-23.546a1.735,1.735,0,0,1,3.47-.034l.126,25.02c.474.273-1.512-.932,16.633,10.126l-.177-35.23a19.663,19.663,0,0,0-19.62-19.521h-8.732c-1.086,2.837-8.879,23.807-10.043,26.85l2.423-11.415a3.418,3.418,0,0,0-.348-2.356l-3.328-6.052,2.958-5.243a1.2,1.2,0,0,0-1.055-1.785h-8.12a1.2,1.2,0,0,0-1.055,1.785l2.958,5.243-3.34,6.075a3.417,3.417,0,0,0-.358,2.311l2.119,11.437c-1.058-2.713-8.568-23.9-9.718-26.85h-8.871a19.663,19.663,0,0,0-19.62,19.522l-.242,48.166,9.222-.575A13.694,13.694,0,0,1,167.565,157.345Z" transform="translate(-79.404 -44.196)" fill="#716aca"/>
        <path id="XMLID_1287_2" data-name="XMLID_1287_" d="M261.612,335.048v-1.2l-2.713-6.035a13.178,13.178,0,0,1,2.713-14.733v-4.939h-9.5v46.886h8.06a11.808,11.808,0,0,1,8.116,3.226v-9.548l-1.643-3.654A12.471,12.471,0,0,1,261.612,335.048Z" transform="translate(-132.587 -159.64)" fill="#716aca"/>
        <rect id="XMLID_1340_2" data-name="XMLID_1340_" width="4.212" height="46.886" transform="translate(91.612 148.506)" fill="#716aca"/>
        <path id="XMLID_1342_2" data-name="XMLID_1342_" d="M299.39,254.385l-5.609-3.419.017,3.4C299,254.37,298.916,254.361,299.39,254.385Z" transform="translate(-154.499 -129.569)" fill="#716aca"/>
        <circle id="XMLID_1353_2" data-name="XMLID_1353_" cx="16.452" cy="16.452" r="16.452" transform="translate(17.979 53.215)" fill="#716aca"/>
        <circle id="XMLID_1355_2" data-name="XMLID_1355_" cx="15.912" cy="15.912" r="15.912" transform="translate(165.01 54.994)" fill="#716aca"/>
        <path id="XMLID_1358_2" data-name="XMLID_1358_" d="M349.2,201.38a5.233,5.233,0,0,0-5.234,5.234v52.134H335.4l3.644-55.333a10.266,10.266,0,0,0-9.564-10.918L311.2,191.284a10.268,10.268,0,0,0-10.608,7.633l14.9-2.683-20.228,9.447-20.337-12.395a6.885,6.885,0,1,0-7.166,11.758l23.489,14.316a6.886,6.886,0,0,0,6.5.359l23.572-11.009c-22.382,18.685-21.166,17.847-22.791,18.569l-1.5,22.572,17.117,1.885-34.8,2.659a8.262,8.262,0,0,0-6.906,11.626l19.269,42.862a8.262,8.262,0,0,0,15.071-6.775l-14.446-32.132c13-.993,1.667-.761,51.625-.761v10.145H310.036v-9.7l-9.5,2.549,9.5,21.124v-3.5h33.927v15.587a5.234,5.234,0,1,0,10.467,0v-98.8A5.235,5.235,0,0,0,349.2,201.38Z" transform="translate(-139.078 -98.17)" fill="#716aca"/>
        <path id="XMLID_1359_2" data-name="XMLID_1359_" d="M127.588,299.3H112.417V238.191h31.877a4.741,4.741,0,1,0,0-9.482H83.536a6.884,6.884,0,0,0-2.3-13.5l-23.771,1.482-13.489-17.79,10.777,8.421-.6-9.091a10.266,10.266,0,0,0-10.923-9.564l-18.267,1.212A10.266,10.266,0,0,0,15.4,200.806l3.176,47.866a8.285,8.285,0,0,0,5.235,8.411H10.467V204.949a5.234,5.234,0,1,0-10.467,0v99.173a5.234,5.234,0,1,0,10.467,0V288.453H31.233l9.5-10.467H10.467V267.551H49.221l7.168,2.952L32.715,296.593a8.262,8.262,0,1,0,12.237,11.1l31.579-34.8A8.262,8.262,0,0,0,73.559,259.7l-32.27-13.29,16.28,3.38,18.49,3.839a13.15,13.15,0,0,1,4.272,1.7l-1.84-7.84a8.28,8.28,0,0,0-8.044-6.374H56.995l-.245-3.686-4.562.285a9.09,9.09,0,0,1-8.952-5.6L33,207.226l15.719,20.73a6.885,6.885,0,0,0,5.915,2.712l14.193-.885a4.733,4.733,0,0,0-.432,6.925h0a4.724,4.724,0,0,0,3.437,1.482h31.1V299.3H90.649l-1.669-7.112-4.394-18.726c-.869,1.4-.228.581-13.424,15.123l3.625,15.447a8.249,8.249,0,0,0,13.111,4.63c.87.2-2.461.12,39.691.12h0a4.741,4.741,0,1,0,0-9.482Z" transform="translate(0 -96.797)" fill="#716aca"/>
      </g>
    </g>
  </g>
</svg>
