<svg width="20" height="20" viewBox="0 0 20 20" fill="none" xmlns="http://www.w3.org/2000/svg">
<path d="M11.4421 2.92471L12.9087 5.85804C13.1087 6.26637 13.6421 6.65804 14.0921 6.73304L16.7504 7.17471C18.4504 7.45804 18.8504 8.69137 17.6254 9.90804L15.5587 11.9747C15.2087 12.3247 15.0171 12.9997 15.1254 13.483L15.7171 16.0414C16.1837 18.0664 15.1087 18.8497 13.3171 17.7914L10.8254 16.3164C10.3754 16.0497 9.63375 16.0497 9.17541 16.3164L6.68375 17.7914C4.90041 18.8497 3.81708 18.058 4.28375 16.0414L4.87541 13.483C4.98375 12.9997 4.79208 12.3247 4.44208 11.9747L2.37541 9.90804C1.15875 8.69137 1.55041 7.45804 3.25041 7.17471L5.90875 6.73304C6.35041 6.65804 6.88375 6.26637 7.08375 5.85804L8.55041 2.92471C9.35041 1.33304 10.6504 1.33304 11.4421 2.92471Z" stroke="#2C2C2C" stroke-width="1.25" stroke-linecap="round" stroke-linejoin="round"/>
</svg>
