<svg id="welcome-vector" xmlns="http://www.w3.org/2000/svg" xmlns:xlink="http://www.w3.org/1999/xlink" width="284.529" height="330.824" viewBox="0 0 284.529 330.824">
  <defs>
    <linearGradient id="linear-gradient" x1="0.849" y1="-3.15" x2="0.723" y2="-0.46" gradientUnits="objectBoundingBox">
      <stop offset="0" stop-color="#c6e6ff"/>
      <stop offset="1" stop-color="#8d9fff"/>
    </linearGradient>
    <linearGradient id="linear-gradient-2" x1="3.851" y1="1.526" x2="4.26" y2="-0.056" gradientUnits="objectBoundingBox">
      <stop offset="0" stop-color="#1ae5ff"/>
      <stop offset="1" stop-color="#eaeeee"/>
    </linearGradient>
  </defs>
  <g id="Group_169" data-name="Group 169" transform="translate(0 0)">
    <path id="Path_1" data-name="Path 1" d="M335.192,366.62c-11.749-6.784-28.233-9.124-43.217-7.023l53.175-30.9c5.808-3.376,5.778-8.848-.069-12.223L223.366,246.2c-5.847-3.375-15.293-3.375-21.1,0l-41.593,24.17c-18-7.946-43.749-7.171-60.11,2.337S82.929,297.146,96.7,307.545l-15.363,8.928c-5.808,3.376-5.777,8.848.069,12.223l121.716,70.273c5.846,3.375,15.293,3.375,21.1,0l34.156-19.849c-3.585,8.69.5,18.235,12.25,25.019,17.943,10.359,46.966,10.359,64.793,0S353.135,376.98,335.192,366.62Z" transform="translate(-76.978 -81.085)" fill="#515459" opacity="0.04"/>
    <g id="Group_23" data-name="Group 23" transform="translate(13.846 57.798)">
      <g id="Group_22" data-name="Group 22">
        <g id="Group_10" data-name="Group 10" transform="translate(10.25 125.133)">
          <g id="Group_4" data-name="Group 4" transform="translate(0 9.524)">
            <g id="Group_3" data-name="Group 3" style="isolation: isolate">
              <path id="Path_2" data-name="Path 2" d="M155.891,296.917c-.48,5.333-5.5,8.955-10.027,10.907a38.51,38.51,0,0,1-15.705,2.914A37.374,37.374,0,0,1,114.2,307.2c-4.3-2.115-8.858-5.95-8.844-11.167-.01,3.8.256,6.938,2.993,9.9,3.524,3.818,8.83,5.874,13.821,6.9,9.738,2.011,23,1.039,30.393-6.457,2.976-3.016,3.383-6.2,3.394-10.207Q155.939,296.549,155.891,296.917Z" transform="translate(-105.353 -281.444)" fill="#9ba8af"/>
              <g id="Group_2" data-name="Group 2" transform="translate(0)">
                <path id="Path_3" data-name="Path 3" d="M148.48,283.142c9.912,5.723,9.976,15,.128,20.726s-25.88,5.723-35.792,0-9.953-15-.105-20.725S138.568,277.419,148.48,283.142Z" transform="translate(-105.353 -278.85)" fill="#b7bac1"/>
              </g>
            </g>
          </g>
          <g id="Group_9" data-name="Group 9" transform="translate(21.982)">
            <g id="Group_8" data-name="Group 8" style="isolation: isolate">
              <g id="Group_5" data-name="Group 5" transform="translate(3.894 2.248)">
                <path id="Path_4" data-name="Path 4" d="M139.761,270.281,139.7,292.4l-3.869,2.248.063-22.116Z" transform="translate(-135.829 -270.281)" fill="#c7d8f2"/>
              </g>
              <g id="Group_6" data-name="Group 6" transform="translate(0 2.249)">
                <path id="Path_5" data-name="Path 5" d="M135.2,272.53l-.063,22.116-3.894-2.248.063-22.116Z" transform="translate(-131.243 -270.281)" fill="#7baeff"/>
              </g>
              <g id="Group_7" data-name="Group 7" transform="translate(0.063)">
                <path id="Path_6" data-name="Path 6" d="M139.08,269.882l-3.869,2.249-3.894-2.248,3.869-2.249Z" transform="translate(-131.317 -267.633)" fill="#4da5dc"/>
              </g>
            </g>
          </g>
        </g>
        <path id="Path_7" data-name="Path 7" d="M104.306,184.451s-7.93,2.115-10.044,6.873-1.586,40.707,9.515,55.51,31.72,16.917,36.478,14.8S172.5,245.777,174.619,238.9s-8.458-12.159-14.274-14.8-9.515-6.344-12.688-15.861-4.758-25.9-8.458-28.548S126.51,172.821,104.306,184.451Z" transform="translate(-93.281 -128.777)" fill="#df6732"/>
        <g id="Group_21" data-name="Group 21" transform="translate(10.283)">
          <path id="Path_8" data-name="Path 8" d="M157.814,172.6s-13.009-10.769-15.654-11.019c-3.174-.248-7.133.83-8.166,5.33a8.3,8.3,0,0,0,3.749,9.232c2.386,1.309,23.32,11.243,27.022,11.224s6.062-3.2,3.663-7.156S157.814,172.6,157.814,172.6Z" transform="translate(-109.671 -126.487)" fill="#e1e8f2"/>
          <g id="Group_20" data-name="Group 20" transform="translate(0 2.119)">
            <g id="Group_17" data-name="Group 17">
              <g id="Group_16" data-name="Group 16" transform="translate(3.338)">
                <g id="Group_15" data-name="Group 15">
                  <g id="Group_14" data-name="Group 14">
                    <g id="Group_13" data-name="Group 13">
                      <path id="Path_9" data-name="Path 9" d="M133.377,157.681a1.331,1.331,0,0,0,.026.428c.194.965.8,3.43.942,4.465.135.992-.91,2.773-3.6,2.851s-7.311-.822-8.988-3.952a74.384,74.384,0,0,0-.914-9.442Z" transform="translate(-111.061 -127.17)" fill="#e16b40"/>
                      <g id="Group_12" data-name="Group 12">
                        <g id="Group_11" data-name="Group 11">
                          <path id="Path_10" data-name="Path 10" d="M137.424,133.683c-1.945-8.151-8.693-12.5-15.979-10.412,0,0-7.951,1.194-11.156,8.388s2.3,12.839,5.824,16.4c1.483,1.459,2.6,2.585,3.313,3.3.257.271.51.547.777.792l.076.077.008-.008a16.73,16.73,0,0,0,7.035,3.811c3.262.8,7.037.064,8.981-2.226S139.37,141.834,137.424,133.683Z" transform="translate(-109.323 -122.751)" fill="#ff8654"/>
                        </g>
                      </g>
                    </g>
                  </g>
                </g>
              </g>
              <path id="Path_11" data-name="Path 11" d="M120.024,159.375s-12.807,10.14-13.965,13.358-1.005,12.015,2.019,17.734,3.086,27.305,4.279,31.47,12.62,4.933,19.583,3.227,18.024-7.535,15.8-15.44c-3.283-11.674-2.5-23.433-2.239-27.148a64.1,64.1,0,0,0-2.7-19.1c-.426-1.294-4.988-3.1-4.988-3.1S133.083,158.176,120.024,159.375Z" transform="translate(-105.391 -128.225)" fill="#585655"/>
            </g>
            <path id="Path_12" data-name="Path 12" d="M122.346,209.548c-5.286-6.7,2.467-29.605-6.7-35.949-2.794-1.935-5.193-2.423-7.181-2.173a11.716,11.716,0,0,0-2.409,3.171c-1.157,3.221-1.005,12.015,2.019,17.734s3.086,27.305,4.279,31.47c1.086,3.79,10.643,4.761,17.6,3.619l10.008-10.47S127.633,216.245,122.346,209.548Z" transform="translate(-105.391 -130.089)" fill="#003783"/>
            <path id="Path_13" data-name="Path 13" d="M121.245,161.409c11.135-1.023,16.26.892,17.532,1.481a32.953,32.953,0,0,1-.162,7.908c-.871,5.262-2.967,19.719-2.967,19.719s-6.87-11.877-11.393-16.766c-3.183-3.44-6.317-6.681-7.9-8.3C119.026,163.17,121.245,161.409,121.245,161.409Z" transform="translate(-107.046 -128.541)" fill="#e1e8f2"/>
            <path id="Path_14" data-name="Path 14" d="M133.377,157.681a1.331,1.331,0,0,0,.026.428c.194.965.8,3.43.942,4.465.135.992-.91,2.773-3.6,2.851s-7.311-.822-8.988-3.952a74.384,74.384,0,0,0-.914-9.442Z" transform="translate(-107.723 -127.17)" fill="#ff8654"/>
            <g id="Group_19" data-name="Group 19" transform="translate(3.338)">
              <g id="Group_18" data-name="Group 18">
                <path id="Path_15" data-name="Path 15" d="M137.424,133.683c-1.945-8.151-8.693-12.5-15.979-10.412,0,0-7.951,1.194-11.156,8.388s2.3,12.839,5.824,16.4c1.483,1.459,2.6,2.585,3.313,3.3.257.271.51.547.777.792l.076.077.008-.008a16.73,16.73,0,0,0,7.035,3.811c3.262.8,7.037.064,8.981-2.226S139.37,141.834,137.424,133.683Z" transform="translate(-109.323 -122.751)" fill="#f7a47a"/>
              </g>
            </g>
            <path id="Path_16" data-name="Path 16" d="M138.607,175.2l-4.963-4.4-3.97,6.948-4-2.528c4.523,4.895,11.383,16.754,11.383,16.754s1.748-12.059,2.715-18.158Z" transform="translate(-108.452 -130.004)" fill="#cfdae4"/>
            <path id="Path_17" data-name="Path 17" d="M139.341,183.716l-2.211-7.805.335-2.674-2.745-2.431-1.927,3.371,2.21,2.017.6,11.589c1.507,2.439,2.525,4.2,2.525,4.2S138.684,188.15,139.341,183.716Z" transform="translate(-109.527 -130.004)" fill="#8db8bb"/>
          </g>
          <path id="Path_18" data-name="Path 18" d="M109.165,130.464a12.122,12.122,0,0,0,.793,11.895c3.965,6.08,8.215,8.785,9.262,8.622s1.576-.428,1.312-1.221-1.586-3.436-1.586-3.436-4.493-.529-4.493-3.436,1.585-3.436,3.436-2.644,2.114,2.115,3.172,3.172,1.321,3.7,2.114,3.437,1.322-1.058,1.322-2.379a5.569,5.569,0,0,0-1.586-4.494c-1.586-1.586.264-4.229-1.322-6.344a15.552,15.552,0,0,0-2.643-2.907s1.057,1.586,6.344.528,7.665-.792,9.78-2.114,1.586-4.229.264-5.287-4.493-1.586-8.194-2.907-5.815-.529-10.309.529S108.108,127.292,109.165,130.464Z" transform="translate(-105.78 -120.255)" fill="#1e0404"/>
        </g>
      </g>
      <path id="Path_19" data-name="Path 19" d="M195.437,319.7a5.517,5.517,0,0,0,2.644,4.582c2.819,1.938,3.348,3.171,5.639,4.053s4.406,3.877,3.349,5.992-5.992,2.467-9.164,1.586-3.7-3.7-6.7-4.758a11.069,11.069,0,0,1-4.934-3.172c-.881-.881-.529-4.406-.529-4.406l10.75-3.524" transform="translate(-107.226 -150.358)" fill="#382747"/>
      <path id="Path_20" data-name="Path 20" d="M211.626,307.657a5.517,5.517,0,0,0,2.643,4.582c2.82,1.938,3.349,3.172,5.639,4.053s4.406,3.878,3.348,5.992-5.991,2.467-9.163,1.586-3.7-3.7-6.7-4.758a11.063,11.063,0,0,1-4.934-3.172c-.881-.88-.529-4.4-.529-4.4l10.749-3.524" transform="translate(-109.67 -148.541)" fill="#382747"/>
      <path id="Path_21" data-name="Path 21" d="M114.568,232.488a19.313,19.313,0,0,1,.528,3.965c0,1.85-1.321,7.137,1.322,13.481s20.354,7.665,26.169,10.309a57.912,57.912,0,0,1,10.309,5.815c1.057.793,2.555,11.984,7.136,18.68s12.336,20.089,14.1,25.728a13.333,13.333,0,0,0,9.516-1.763c2.357-1.542,2.115-2.467,2.115-2.467s-9.164-20.09-11.279-28.549-4.582-18.327-8.458-20.794-16.212-11.278-19.032-13.041-10.417-7.333-11.906-10.716S119.15,224.294,114.568,232.488Z" transform="translate(-96.494 -136.548)" fill="#94a3c0"/>
      <path id="Path_22" data-name="Path 22" d="M131.691,222.215a19.313,19.313,0,0,1,.528,3.965c0,1.851-1.321,7.137,1.322,13.481s20.354,7.665,26.169,10.309a57.948,57.948,0,0,1,10.309,5.816c1.057.793,2.555,11.983,7.136,18.679s12.336,20.089,14.1,25.728a13.336,13.336,0,0,0,9.516-1.762c2.357-1.543,2.114-2.467,2.114-2.467s-9.163-20.09-11.278-28.548-4.582-18.327-8.458-20.794-16.213-11.278-19.032-13.041-10.418-7.333-11.906-10.715S136.273,214.02,131.691,222.215Z" transform="translate(-99.078 -134.997)" fill="#94a3c0"/>
    </g>
    <g id="Group_33" data-name="Group 33" transform="translate(0 95.975)">
      <g id="Group_29" data-name="Group 29" transform="translate(98.801 110.414)">
        <g id="Group_28" data-name="Group 28" style="isolation: isolate">
          <g id="Group_24" data-name="Group 24" transform="translate(9.466 5.465)">
            <path id="Path_23" data-name="Path 23" d="M214.044,301.7l-.152,53.76-9.4,5.466.152-53.76Z" transform="translate(-204.487 -301.697)" fill="#c2c2c2"/>
          </g>
          <g id="Group_26" data-name="Group 26" transform="translate(0 5.465)">
            <g id="Group_25" data-name="Group 25">
              <path id="Path_24" data-name="Path 24" d="M202.957,307.163l-.152,53.76-9.466-5.465.152-53.76Z" transform="translate(-193.338 -301.697)" fill="#b7bac1"/>
            </g>
          </g>
          <g id="Group_27" data-name="Group 27" transform="translate(0.152)">
            <path id="Path_25" data-name="Path 25" d="M212.389,300.726l-9.4,5.466-9.466-5.465,9.4-5.465Z" transform="translate(-193.517 -295.26)" fill="#4da5dc"/>
          </g>
        </g>
      </g>
      <g id="Group_32" data-name="Group 32">
        <path id="Path_26" data-name="Path 26" d="M373.366,258.248c-.014.156-.025.313-.053.469-.024.128-.062.255-.1.383-.039.149-.075.3-.127.444-.043.122-.1.244-.154.364-.068.156-.135.312-.217.464-.06.112-.132.222-.2.332-.108.175-.223.349-.351.521s-.251.33-.394.492c-.033.038-.064.077-.1.115-.193.21-.4.415-.628.617-.143.129-.3.254-.459.379-.138.11-.269.222-.417.329-.169.123-.355.24-.537.358s-.365.247-.566.364L248.143,334.153a16.882,16.882,0,0,1-3.27,1.437,21.629,21.629,0,0,1-2.825.7q-.939.168-1.9.265c-.549.054-1.1.091-1.655.11-.509.017-1.019.02-1.528.007-.492-.012-.982-.038-1.47-.079l-.025,8.619q.732.061,1.47.079.764.019,1.528-.007.832-.028,1.655-.11c.642-.064,1.278-.152,1.9-.265a21.594,21.594,0,0,0,2.825-.7,16.826,16.826,0,0,0,3.27-1.437L369.043,272.5l.183-.108c.136-.082.252-.17.381-.254.183-.12.371-.238.541-.361.147-.107.279-.218.415-.329.157-.126.317-.25.46-.38.029-.026.064-.05.092-.076.192-.177.368-.357.536-.54.036-.038.065-.077.1-.116.1-.112.2-.224.29-.339.04-.049.065-.1.1-.152.128-.172.243-.346.351-.521.046-.074.105-.144.148-.219.02-.036.032-.076.053-.113.082-.153.149-.308.217-.464.04-.091.093-.18.127-.272.011-.031.015-.062.026-.093.053-.149.089-.3.128-.447.026-.1.066-.2.087-.3.005-.026,0-.053.008-.08.029-.157.04-.313.054-.47.009-.1.031-.2.035-.306,0-.044,0-.087,0-.132l.025-8.619C373.4,257.956,373.38,258.1,373.366,258.248Z" transform="translate(-100.896 -179.194)" fill="#c5c8d3"/>
        <path id="Path_27" data-name="Path 27" d="M210.119,336.42c-.5-.07-.993-.156-1.479-.257q-.792-.164-1.556-.381c-.622-.177-1.228-.381-1.812-.611a16.25,16.25,0,0,1-2.152-1.032L81.4,263.865c-2.942-1.7-4.411-3.928-4.4-6.154l-.025,8.619c-.006,2.226,1.463,4.456,4.4,6.155L203.1,342.757a16.241,16.241,0,0,0,2.152,1.032c.584.23,1.19.434,1.812.611q.763.218,1.556.382.73.15,1.48.257c.479.068.964.121,1.45.161l.025-8.619Q210.839,336.522,210.119,336.42Z" transform="translate(-76.974 -179.179)" fill="#9ba8af"/>
        <g id="Group_31" data-name="Group 31" transform="translate(0.025)">
          <g id="Group_30" data-name="Group 30">
            <path id="Path_28" data-name="Path 28" d="M345.081,238.022c5.847,3.376,5.877,8.848.069,12.223L224.225,320.519c-5.808,3.375-15.255,3.375-21.1,0L81.408,250.246c-5.846-3.375-5.877-8.847-.069-12.222L202.264,167.75c5.808-3.375,15.255-3.375,21.1,0Z" transform="translate(-77.003 -165.219)" fill="#ebedec"/>
          </g>
        </g>
      </g>
    </g>
    <g id="Group_83" data-name="Group 83" transform="translate(30.727 129.947)">
      <g id="Group_43" data-name="Group 43" transform="translate(106.559 50.752)">
        <g id="Group_34" data-name="Group 34">
          <path id="Path_29" data-name="Path 29" d="M238.664,278.536,271.985,297.9l23.438-13.532L262.1,265Z" transform="translate(-238.664 -265.004)" fill="#fff"/>
        </g>
        <g id="Group_37" data-name="Group 37" transform="translate(14.16 7.451)">
          <g id="Group_35" data-name="Group 35" transform="translate(2.279)">
            <path id="Path_30" data-name="Path 30" d="M269.906,275.042l-5.242,3.046-6.639-1.955c1.854-2.12,6.327-2.963,9.994-1.882A8.222,8.222,0,0,1,269.906,275.042Z" transform="translate(-258.025 -273.779)" fill="#ff5668"/>
          </g>
          <g id="Group_36" data-name="Group 36" transform="translate(0 1.659)">
            <path id="Path_31" data-name="Path 31" d="M270.7,275.733c3.523,2.034,3.541,5.332.041,7.366a14.015,14.015,0,0,1-12.718,0c-2.819-1.628-3.48-4-1.688-6.048l8.026,2.365Z" transform="translate(-255.341 -275.733)" fill="#b391ff"/>
          </g>
        </g>
        <g id="Group_42" data-name="Group 42" transform="translate(24.481 14.874)">
          <g id="Group_39" data-name="Group 39">
            <g id="Group_38" data-name="Group 38">
              <path id="Path_32" data-name="Path 32" d="M267.717,291.236c-.292.169-.293.437,0,.606a1.143,1.143,0,0,0,1.046,0l14.875-8.587c.292-.169.294-.437,0-.606a1.143,1.143,0,0,0-1.046,0Z" transform="translate(-267.497 -282.522)" fill="#adcdfc"/>
            </g>
          </g>
          <g id="Group_40" data-name="Group 40" transform="translate(10.281 0.998)">
            <path id="Path_33" data-name="Path 33" d="M279.822,287.467a.321.321,0,0,0,0,.605,1.164,1.164,0,0,0,1.051,0l6.312-3.644a.322.322,0,0,0,0-.61,1.155,1.155,0,0,0-1.046,0Z" transform="translate(-279.605 -283.697)" fill="#d4d9df"/>
          </g>
          <g id="Group_41" data-name="Group 41" transform="translate(8.316 1.931)">
            <path id="Path_34" data-name="Path 34" d="M277.514,290.624c-.292.169-.3.441-.008.609a1.156,1.156,0,0,0,1.051,0l9.876-5.7c.292-.169.294-.437,0-.606a1.148,1.148,0,0,0-1.046,0Z" transform="translate(-277.292 -284.796)" fill="#d4d9df"/>
          </g>
        </g>
      </g>
      <g id="Group_47" data-name="Group 47" transform="translate(101.877 81.929)">
        <g id="Group_44" data-name="Group 44" transform="translate(0.006)">
          <path id="Path_35" data-name="Path 35" d="M277.065,311.658a.894.894,0,0,1,.009,1.692L253.29,327.159a3.211,3.211,0,0,1-2.922,0l-16.6-9.584a.894.894,0,0,1-.009-1.692l23.784-13.809a3.216,3.216,0,0,1,2.922,0Z" transform="translate(-233.157 -301.723)" fill="#f2f8fd"/>
        </g>
        <g id="Group_46" data-name="Group 46" transform="translate(0 1.49)">
          <path id="Path_36" data-name="Path 36" d="M277.668,314.488c0,.021,0,.043-.007.065s-.009.036-.014.053-.011.042-.018.062-.014.033-.021.05a.628.628,0,0,1-.031.065c-.008.015-.018.031-.027.046s-.031.048-.048.072-.022.028-.034.042a.99.99,0,0,1-.087.094l-.034.034c-.02.018-.042.035-.064.052l-.058.046c-.024.017-.049.033-.075.05s-.05.034-.078.05l-23.784,13.809a2.2,2.2,0,0,1-.289.138l-.081.031c-.063.022-.128.041-.194.059s-.136.037-.206.051-.166.033-.25.043c-.02,0-.041.007-.062.008a3.344,3.344,0,0,1-.346.02H251.8c-.115,0-.229-.007-.343-.019l-.051-.006a3.261,3.261,0,0,1-.332-.057l-.059-.014a2.967,2.967,0,0,1-.286-.087l-.051-.017a2.287,2.287,0,0,1-.315-.149l-16.6-9.584a1.192,1.192,0,0,1-.572-.622.718.718,0,0,1-.038-.23l-.006.953a.751.751,0,0,0,.009.116,1.108,1.108,0,0,0,.6.737l16.6,9.584a2.207,2.207,0,0,0,.3.143l.016.006.051.017c.06.022.121.044.184.062l.1.025.059.014c.019,0,.036.009.054.013.067.014.136.026.2.036l.073.009.051.006.076.008c.067.005.135.009.2.01h.119c.031,0,.061,0,.093,0,.076,0,.153-.008.228-.014l.026,0,.061-.008c.059-.008.118-.014.176-.025.025,0,.049-.014.075-.019.07-.014.139-.032.207-.051.036-.01.074-.016.109-.027s.056-.022.085-.032l.081-.031a2.208,2.208,0,0,0,.289-.138l23.784-13.809.025-.015c.019-.011.036-.024.053-.036s.051-.032.074-.049.039-.031.058-.046.044-.035.064-.052l.013-.011c.008-.008.014-.015.022-.023.031-.031.06-.062.087-.094.005-.007.014-.014.019-.02s.009-.014.014-.021c.018-.024.034-.048.048-.072s.014-.02.02-.031l.008-.015c.011-.021.02-.042.03-.065s.013-.025.018-.037l0-.013a.557.557,0,0,0,.018-.062.33.33,0,0,0,.012-.042l0-.011c0-.021.005-.043.007-.065a.373.373,0,0,0,.005-.042v-.019l.005-.953C277.673,314.447,277.67,314.468,277.668,314.488Z" transform="translate(-233.15 -305.13)" fill="url(#linear-gradient)"/>
          <g id="Group_45" data-name="Group 45" transform="translate(2.798)">
            <path id="Path_37" data-name="Path 37" d="M275.109,312.224a.288.288,0,0,1,0,.544l-22.575,13.119a1.037,1.037,0,0,1-.939,0l-14.955-8.634a.288.288,0,0,1,0-.545l22.575-13.118a1.033,1.033,0,0,1,.941,0Z" transform="translate(-236.446 -303.478)" fill="url(#linear-gradient-2)"/>
          </g>
        </g>
      </g>
      <g id="Group_57" data-name="Group 57" transform="translate(32.545)">
        <g id="Group_48" data-name="Group 48">
          <path id="Path_38" data-name="Path 38" d="M151.493,218.762l33.321,19.364,23.439-13.532L174.932,205.23Z" transform="translate(-151.493 -205.23)" fill="#fff"/>
        </g>
        <g id="Group_51" data-name="Group 51" transform="translate(14.16 7.451)">
          <g id="Group_49" data-name="Group 49" transform="translate(2.279)">
            <path id="Path_39" data-name="Path 39" d="M182.735,215.268l-5.242,3.046-6.638-1.956c1.853-2.119,6.327-2.962,9.993-1.882A8.246,8.246,0,0,1,182.735,215.268Z" transform="translate(-170.855 -214.005)" fill="#b391ff"/>
          </g>
          <g id="Group_50" data-name="Group 50" transform="translate(0 1.659)">
            <path id="Path_40" data-name="Path 40" d="M183.532,215.959c3.524,2.034,3.541,5.332.041,7.366a14.013,14.013,0,0,1-12.717,0c-2.819-1.628-3.481-4-1.688-6.049l8.025,2.365Z" transform="translate(-168.171 -215.959)" fill="#05ccff"/>
          </g>
        </g>
        <g id="Group_56" data-name="Group 56" transform="translate(24.481 14.874)">
          <g id="Group_53" data-name="Group 53">
            <g id="Group_52" data-name="Group 52">
              <path id="Path_41" data-name="Path 41" d="M180.547,231.462c-.292.169-.294.437,0,.606a1.146,1.146,0,0,0,1.045,0l14.875-8.588c.292-.168.294-.436,0-.605a1.143,1.143,0,0,0-1.046,0Z" transform="translate(-180.327 -222.748)" fill="#adcdfc"/>
            </g>
          </g>
          <g id="Group_54" data-name="Group 54" transform="translate(10.28 0.998)">
            <path id="Path_42" data-name="Path 42" d="M192.651,227.692a.322.322,0,0,0,0,.606,1.164,1.164,0,0,0,1.051,0l6.312-3.645c.292-.168.289-.44,0-.609a1.156,1.156,0,0,0-1.046,0Z" transform="translate(-192.435 -223.923)" fill="#d4d9df"/>
          </g>
          <g id="Group_55" data-name="Group 55" transform="translate(8.316 1.93)">
            <path id="Path_43" data-name="Path 43" d="M190.343,230.85c-.292.168-.3.44-.008.609a1.153,1.153,0,0,0,1.051,0l9.876-5.7c.292-.168.294-.436,0-.605a1.141,1.141,0,0,0-1.045,0Z" transform="translate(-190.121 -225.021)" fill="#05ccff"/>
          </g>
        </g>
      </g>
      <g id="Group_82" data-name="Group 82" transform="translate(0 32.688)">
        <g id="Group_70" data-name="Group 70" transform="translate(24.202 17.865)">
          <g id="Group_61" data-name="Group 61" transform="translate(18.053)" style="isolation: isolate">
            <g id="Group_58" data-name="Group 58" transform="translate(39.255 22.664)">
              <path id="Path_44" data-name="Path 44" d="M213.785,291.463l-.006,2-4.617,2.683.006-2Z" transform="translate(-209.162 -291.463)" fill="#540cc7"/>
            </g>
            <g id="Group_59" data-name="Group 59" transform="translate(0 2.683)">
              <path id="Path_45" data-name="Path 45" d="M202.19,290.594l-.006,2-39.255-22.664.006-2Z" transform="translate(-162.929 -267.93)" fill="#3f0995"/>
            </g>
            <g id="Group_60" data-name="Group 60" transform="translate(0.006)">
              <path id="Path_46" data-name="Path 46" d="M206.808,287.434l-4.617,2.683-39.255-22.664,4.617-2.683Z" transform="translate(-162.936 -264.77)" fill="#7974f5"/>
            </g>
          </g>
          <g id="Group_65" data-name="Group 65" transform="translate(9.028 5.247)" style="isolation: isolate">
            <g id="Group_62" data-name="Group 62" transform="translate(30.836 17.803)">
              <path id="Path_47" data-name="Path 47" d="M193.237,291.917l-.006,2-4.614,2.681.006-2Z" transform="translate(-188.617 -291.917)" fill="#2689fd"/>
            </g>
            <g id="Group_63" data-name="Group 63" transform="translate(0 2.681)">
              <path id="Path_48" data-name="Path 48" d="M183.142,291.91l-.006,2-30.836-17.8.006-2Z" transform="translate(-152.3 -274.107)" fill="#3548db"/>
            </g>
            <g id="Group_64" data-name="Group 64" transform="translate(0.006)">
              <path id="Path_49" data-name="Path 49" d="M187.756,288.752l-4.614,2.681-30.836-17.8,4.614-2.681Z" transform="translate(-152.307 -270.949)" fill="#58affb"/>
            </g>
          </g>
          <g id="Group_69" data-name="Group 69" transform="translate(0 10.493)" style="isolation: isolate">
            <g id="Group_66" data-name="Group 66" transform="translate(14.11 8.147)">
              <path id="Path_50" data-name="Path 50" d="M162.905,286.723l-.006,2-4.614,2.681.006-2Z" transform="translate(-158.286 -286.723)" fill="#ee2c6a"/>
            </g>
            <g id="Group_67" data-name="Group 67" transform="translate(0 2.681)">
              <path id="Path_51" data-name="Path 51" d="M155.783,288.433l-.006,2-14.11-8.147.006-2Z" transform="translate(-141.667 -280.286)" fill="#ee428c"/>
            </g>
            <g id="Group_68" data-name="Group 68" transform="translate(0.006)">
              <path id="Path_52" data-name="Path 52" d="M160.4,285.275l-4.614,2.681-14.11-8.146,4.614-2.681Z" transform="translate(-141.674 -277.129)" fill="#ff3d9d"/>
            </g>
          </g>
        </g>
        <g id="Group_75" data-name="Group 75" transform="translate(11.443 11.713)">
          <g id="Group_74" data-name="Group 74">
            <g id="Group_71" data-name="Group 71">
              <path id="Path_53" data-name="Path 53" d="M126.986,271.259c-.46.266-.463.689-.005.955a1.8,1.8,0,0,0,1.648,0l23.445-13.537c.461-.266.463-.689.006-.954a1.8,1.8,0,0,0-1.649,0Z" transform="translate(-126.64 -257.524)" fill="#adcdfc"/>
            </g>
            <g id="Group_72" data-name="Group 72" transform="translate(16.204 1.572)">
              <path id="Path_54" data-name="Path 54" d="M146.064,265.318a.506.506,0,0,0-.005.954,1.838,1.838,0,0,0,1.657.005l9.949-5.744a.507.507,0,0,0,0-.96,1.82,1.82,0,0,0-1.649,0Z" transform="translate(-145.724 -259.375)" fill="#adcdfc"/>
            </g>
            <g id="Group_73" data-name="Group 73" transform="translate(13.108 3.042)">
              <path id="Path_55" data-name="Path 55" d="M142.429,270.294c-.46.266-.471.695-.014.96a1.821,1.821,0,0,0,1.657-.005l15.568-8.988c.46-.266.462-.689.005-.954a1.8,1.8,0,0,0-1.649,0Z" transform="translate(-142.078 -261.107)" fill="#adcdfc"/>
            </g>
          </g>
        </g>
        <g id="Group_81" data-name="Group 81">
          <g id="Group_79" data-name="Group 79" transform="translate(3.834)" style="isolation: isolate">
            <g id="Group_76" data-name="Group 76">
              <path id="Path_56" data-name="Path 56" d="M137.339,245.986l-3.726,2.165a13.447,13.447,0,0,0-11.986.1c-.068.04-.132.081-.2.121l-3.751-2.166.2-.12C123.226,242.977,131.887,242.944,137.339,245.986Z" transform="translate(-117.679 -243.729)" fill="#7cccff"/>
            </g>
            <g id="Group_77" data-name="Group 77" transform="translate(16.504 2.596)">
              <path id="Path_57" data-name="Path 57" d="M140.848,246.786c4.426,2.771,4.884,6.9,1.361,9.939l-3.867-2.232c1.551-1.776,1.142-3.981-1.225-5.539Z" transform="translate(-137.117 -246.786)" fill="#7cccff"/>
            </g>
            <g id="Group_78" data-name="Group 78" transform="translate(0.679 10.729)">
              <path id="Path_58" data-name="Path 58" d="M138.913,258.562a12.068,12.068,0,0,1-1.212.8c-5.27,3.063-13.757,3.138-19.222.229l3.73-2.167a13.5,13.5,0,0,0,11.744-.227,6.717,6.717,0,0,0,1.156-.837Z" transform="translate(-118.479 -256.365)" fill="#3eabff"/>
            </g>
          </g>
          <g id="Group_80" data-name="Group 80" transform="translate(0 2.827)">
            <path id="Path_59" data-name="Path 59" d="M120.218,249.234c-2.546,1.917-2.343,4.665.6,6.461l-3.727,2.165c-5.009-2.994-5.229-7.677-.64-10.8Z" transform="translate(-113.163 -247.058)" fill="#3eabff"/>
          </g>
        </g>
      </g>
    </g>
    <g id="Group_95" data-name="Group 95" transform="translate(104.12 52.418)">
      <g id="Group_88" data-name="Group 88">
        <g id="Group_84" data-name="Group 84">
          <path id="Path_60" data-name="Path 60" d="M223.514,126.334a6.826,6.826,0,0,1,3.094,5.359l-.034,29.964c-.005,1.966-1.4,2.763-3.114,1.775l-8.356-4.824-.407.566-1.63,2.3-1.617-4.171-.4-1.033-8.356-4.824a6.817,6.817,0,0,1-3.089-5.356l.033-29.964c.006-1.967,1.4-2.766,3.109-1.778Z" transform="translate(-199.603 -113.92)" fill="#58affb"/>
        </g>
        <g id="Group_87" data-name="Group 87" transform="translate(4.141 9.78)">
          <g id="Group_85" data-name="Group 85" transform="translate(0.012)">
            <path id="Path_61" data-name="Path 61" d="M209.765,128.394l0,.843a.646.646,0,0,1-.97.557l-3.978-2.308a.645.645,0,0,1-.321-.56l0-.843a.646.646,0,0,1,.971-.557l3.977,2.308A.645.645,0,0,1,209.765,128.394Z" transform="translate(-204.494 -125.438)" fill="#fff"/>
          </g>
          <g id="Group_86" data-name="Group 86" transform="translate(0 4.195)">
            <path id="Path_62" data-name="Path 62" d="M222.344,140.595l0,.845a.646.646,0,0,1-.969.558L204.8,132.43a.647.647,0,0,1-.323-.561l0-.845a.646.646,0,0,1,.969-.558l16.571,9.567A.645.645,0,0,1,222.344,140.595Z" transform="translate(-204.48 -130.379)" fill="#adcdfc"/>
          </g>
        </g>
      </g>
      <g id="Group_94" data-name="Group 94" transform="translate(4.516 21.609)">
        <g id="Group_89" data-name="Group 89">
          <path id="Path_63" data-name="Path 63" d="M208.825,141.621l0,.966-2.244,7.662-.961-.555,2.234-7.646-2.93-1.692,0-.988Z" transform="translate(-204.922 -139.369)" fill="#fff"/>
        </g>
        <g id="Group_90" data-name="Group 90" transform="translate(4.769 2.925)">
          <path id="Path_64" data-name="Path 64" d="M214.23,144.772l0,.987-2.532-1.462-.148,2.968c.279-.381.7-.412,1.287-.076a3.541,3.541,0,0,1,1.592,3.271l-.005,1.933c0,1.519-.636,2.144-1.948,1.386a3.977,3.977,0,0,1-1.934-3.627l0-.658.906.523,0,.733a2.163,2.163,0,0,0,1,2.015c.684.395,1.01.04,1.012-.852l.005-1.922a2.173,2.173,0,0,0-1-2.016c-.526-.3-.888-.172-.973.5v.223l-.906-.523.256-5.363Z" transform="translate(-210.539 -142.814)" fill="#fff"/>
        </g>
        <g id="Group_91" data-name="Group 91" transform="translate(13.76 12.119)">
          <path id="Path_65" data-name="Path 65" d="M222.38,153.848a2.512,2.512,0,0,1,1.225,2.292l-.008,3.112c0,.966-.384,1.385-1.235.894a2.552,2.552,0,0,1-1.234-2.319l.008-3.112C221.14,153.771,221.539,153.363,222.38,153.848Zm.6,5.111.009-3.218a1.34,1.34,0,0,0-.608-1.245c-.434-.25-.62-.007-.622.535l-.009,3.218a1.368,1.368,0,0,0,.617,1.26c.425.246.61-.02.612-.55" transform="translate(-221.128 -153.643)" fill="#fff"/>
        </g>
        <g id="Group_92" data-name="Group 92" transform="translate(9.538 5.969)">
          <path id="Path_66" data-name="Path 66" d="M218.622,152.041c0,.955-.4,1.364-1.243.878a2.541,2.541,0,0,1-1.224-2.3l.008-3.133c0-.945.4-1.364,1.234-.883a2.557,2.557,0,0,1,1.235,2.309Zm-.619-.3.008-3.229a1.37,1.37,0,0,0-.616-1.26c-.444-.256-.611.02-.612.551l-.009,3.228a1.315,1.315,0,0,0,.607,1.245c.435.25.621.007.622-.535" transform="translate(-216.155 -146.399)" fill="#fff"/>
        </g>
        <g id="Group_93" data-name="Group 93" transform="translate(10.854 8.245)">
          <path id="Path_67" data-name="Path 67" d="M221.134,149.08l.573.331-3.42,7.951-.582-.336Z" transform="translate(-217.705 -149.08)" fill="#fff"/>
        </g>
      </g>
    </g>
    <g id="Group_107" data-name="Group 107" transform="translate(122.781 116.762)">
      <g id="Group_97" data-name="Group 97" transform="translate(0 5.909)">
        <g id="Group_96" data-name="Group 96">
          <path id="Path_68" data-name="Path 68" d="M264.708,200.953c9.912,5.723,9.976,15,.128,20.726s-25.88,5.723-35.792,0-9.953-15-.105-20.726S254.8,195.23,264.708,200.953Z" transform="translate(-221.581 -196.661)" fill="#adcdfc"/>
        </g>
      </g>
      <g id="Group_106" data-name="Group 106" transform="translate(2.455)">
        <g id="Group_98" data-name="Group 98" transform="translate(34.595 4.07)">
          <path id="Path_69" data-name="Path 69" d="M271.527,194.5l-.01,3.644-6.3,3.661.01-3.644Z" transform="translate(-265.217 -194.495)" fill="#cc096a"/>
        </g>
        <path id="Path_70" data-name="Path 70" d="M241.628,200.816c.044-.017.086-.036.129-.053.352-.134.714-.255,1.081-.37.253-.08.514-.15.773-.221.2-.053.393-.111.593-.16.273-.066.552-.121.83-.177.2-.041.4-.087.61-.124.084-.014.169-.026.253-.04q.518-.085,1.044-.148c.1-.012.2-.025.3-.036.4-.043.813-.078,1.222-.1l.227-.012c.275-.014.55-.018.825-.023s.55-.007.825,0c.23,0,.46.01.689.019q.382.015.763.041.348.025.695.059.378.036.752.084c.225.028.449.06.672.1.268.042.533.088.8.138s.554.105.827.167l.2.044c.384.092.762.194,1.133.3.107.031.211.065.318.1q.464.146.914.312c.087.032.177.062.263.1.272.105.535.222.8.339.13.058.263.11.391.17.38.18.749.371,1.1.577l.01-4.25c-.355-.205-.724-.4-1.1-.577-.126-.06-.258-.112-.387-.169-.225-.1-.447-.2-.679-.3-.04-.016-.082-.029-.121-.045-.086-.033-.174-.063-.262-.1q-.45-.167-.914-.312c-.106-.033-.211-.067-.318-.1-.071-.021-.14-.046-.212-.066-.3-.087-.61-.164-.921-.239l-.2-.044c-.15-.034-.3-.07-.453-.1-.123-.025-.25-.042-.374-.065-.265-.05-.53-.1-.8-.138-.107-.017-.211-.041-.319-.056s-.236-.025-.353-.039c-.25-.032-.5-.059-.751-.084-.121-.012-.239-.031-.359-.04s-.224-.011-.336-.019c-.254-.017-.508-.031-.763-.041-.127-.005-.255-.017-.383-.02-.1,0-.2,0-.307,0-.275,0-.549,0-.824,0-.137,0-.273,0-.41,0s-.278.014-.416.02c-.076,0-.151.007-.227.012-.343.02-.686.045-1.027.079-.065.006-.13.016-.2.023-.1.011-.2.025-.3.036q-.525.062-1.042.148c-.085.014-.171.025-.255.041-.041.007-.082.012-.123.02-.164.029-.322.07-.484.1-.279.057-.559.112-.832.178-.2.048-.395.105-.591.159-.261.071-.521.142-.776.222-.054.017-.111.03-.166.048-.31.1-.615.209-.914.323-.043.017-.085.036-.129.053-.329.128-.649.267-.963.411-.093.043-.185.087-.276.131-.348.168-.689.343-1.016.533l-.183.108c-.057.035-.11.07-.165.1-.093.058-.185.115-.274.174s-.16.107-.239.161-.172.119-.256.179l-.223.168c-.08.061-.159.122-.236.184s-.139.115-.207.172-.146.127-.217.19c-.029.025-.06.051-.089.077s-.048.05-.075.075c-.119.112-.232.225-.34.34-.037.038-.076.076-.111.115-.138.15-.268.3-.39.455l-.017.02c-.028.036-.051.072-.078.107-.073.1-.145.194-.212.291-.036.053-.07.108-.105.162-.058.088-.113.177-.165.266-.014.025-.031.048-.045.073s-.037.073-.057.109c-.04.076-.08.151-.116.227s-.06.126-.088.189-.066.152-.1.228c-.014.034-.03.068-.042.1s-.02.061-.031.092c-.026.073-.05.146-.072.219s-.04.132-.059.2-.037.147-.053.22c-.009.04-.02.079-.029.119s-.008.053-.012.081c-.014.075-.025.149-.036.225s-.019.132-.025.2-.012.151-.016.228c0,.044-.008.088-.009.132s0,.694,0,.738l-.01,3.644c0-.088.006-.177.011-.265s.008-.152.016-.228.016-.132.026-.2.021-.15.035-.225.027-.133.042-.2.034-.147.053-.22.038-.132.059-.2.046-.145.071-.217.048-.13.074-.2.063-.152.1-.228.058-.126.089-.19.076-.15.116-.226.066-.121.1-.183c.052-.089.108-.177.165-.266.035-.054.069-.109.105-.162.067-.1.138-.194.212-.29.031-.042.061-.085.1-.127.121-.153.252-.3.39-.455.036-.038.074-.076.11-.115.11-.115.222-.228.341-.34.053-.051.108-.1.164-.152s.144-.127.217-.189.138-.116.209-.173.155-.123.235-.184.147-.112.223-.168.168-.119.255-.178.158-.11.24-.163.181-.115.273-.173c.115-.071.228-.143.348-.212.326-.19.667-.365,1.016-.533.091-.044.183-.087.275-.13C240.979,201.083,241.3,200.944,241.628,200.816Z" transform="translate(-226.061 -190.516)" fill="#cc096a"/>
        <g id="Group_99" data-name="Group 99" transform="translate(7.082 20.059)">
          <path id="Path_71" data-name="Path 71" d="M239.123,213.327l-.01,3.644-6.3,3.661.01-3.643Z" transform="translate(-232.813 -213.327)" fill="#cc096a"/>
        </g>
        <path id="Path_72" data-name="Path 72" d="M224.472,209.63l.01-3.643c-.01,3.578,2.352,7.162,7.082,9.892l-.01,3.644C226.824,216.792,224.462,213.208,224.472,209.63Z" transform="translate(-224.472 -192.16)" fill="none"/>
        <g id="Group_100" data-name="Group 100" transform="translate(0 13.827)">
          <path id="Path_73" data-name="Path 73" d="M231.564,215.879l-.01,3.644c-4.73-2.731-7.092-6.315-7.082-9.893l.01-3.643c-.01,3.578,2.352,7.162,7.082,9.892" transform="translate(-224.472 -205.987)" fill="#cc096a"/>
        </g>
        <g id="Group_101" data-name="Group 101" transform="translate(0.011)">
          <path id="Path_74" data-name="Path 74" d="M265.379,193.772l-6.3,3.661c-5.9-3.4-15.425-3.4-21.283,0s-5.826,8.924.07,12.328l-6.3,3.66c-9.4-5.427-9.447-14.224-.11-19.649S255.978,188.344,265.379,193.772Z" transform="translate(-224.485 -189.702)" fill="#ff5668"/>
        </g>
        <path id="Path_75" data-name="Path 75" d="M265.227,200.121l-.01,2.529c2.965,1.712,4.446,3.959,4.44,6.2l.01-3.643C269.673,202.965,268.192,201.833,265.227,200.121Z" transform="translate(-230.622 -191.274)" fill="#3278cc"/>
        <g id="Group_102" data-name="Group 102" transform="translate(34.474 21.278)">
          <path id="Path_76" data-name="Path 76" d="M271.426,218.423l-.01,2.528-6.341-3.661.01-2.528Z" transform="translate(-265.075 -214.762)" fill="#3278cc"/>
        </g>
        <path id="Path_77" data-name="Path 77" d="M279.693,206.567c-.006.121-.014.242-.026.363-.011.105-.025.21-.04.314-.017.121-.034.24-.056.36s-.042.211-.066.317-.054.234-.086.351-.059.211-.093.317-.074.232-.115.347-.076.207-.117.31c-.048.121-.1.243-.154.363q-.067.152-.141.3-.089.181-.186.36c-.053.1-.106.194-.162.29-.082.143-.172.284-.263.426-.055.085-.109.172-.166.256-.107.156-.222.311-.34.464-.051.067-.1.135-.151.2-.194.245-.4.487-.622.726-.057.062-.118.122-.177.183q-.26.273-.543.541c-.086.082-.172.162-.261.243-.113.1-.228.2-.346.3s-.217.184-.33.275-.249.2-.376.295-.235.179-.357.267-.268.191-.406.286-.252.173-.382.258-.289.185-.436.276c-.183.115-.364.228-.556.34-.062.037-.125.07-.187.106l-.01,3.643c.062-.036.125-.07.187-.106.1-.057.2-.115.293-.172s.173-.111.262-.166c.148-.093.295-.184.437-.278s.256-.172.381-.257.274-.19.408-.287.239-.177.356-.267.254-.2.376-.295.222-.183.33-.274.234-.2.346-.3c.046-.042.1-.082.142-.124s.078-.08.12-.119q.284-.268.543-.541c.059-.061.12-.121.176-.183.22-.239.429-.481.622-.727l.027-.031c.044-.056.081-.114.124-.171.117-.154.232-.308.339-.464.059-.085.112-.172.167-.257.092-.141.18-.283.263-.425.023-.039.05-.077.072-.116.032-.058.059-.117.09-.175.065-.12.127-.239.185-.359.049-.1.1-.2.142-.3q.081-.181.153-.363c.022-.054.048-.108.069-.163s.031-.1.049-.147c.041-.115.078-.231.115-.346s.064-.211.093-.318.059-.234.085-.35c.014-.064.034-.126.047-.189.008-.042.012-.086.02-.128.022-.119.04-.239.057-.359s.029-.21.04-.315c.012-.121.019-.241.025-.362,0-.07.014-.142.015-.212s0-.14,0-.211l.01-3.643C279.712,206.285,279.7,206.426,279.693,206.567Z" transform="translate(-231.728 -192.184)" fill="#3278cc"/>
        <g id="Group_103" data-name="Group 103" transform="translate(34.485 5.185)">
          <path id="Path_78" data-name="Path 78" d="M271.507,195.809c9.4,5.426,9.445,14.223.108,19.648-.062.036-.124.07-.187.105l-6.341-3.661c.062-.036.125-.069.187-.105,5.858-3.4,5.826-8.924-.066-12.326Z" transform="translate(-265.087 -195.809)" fill="#58affb"/>
        </g>
        <path id="Path_79" data-name="Path 79" d="M267.357,223.569c.262-.1.52-.205.778-.312.154-.065.307-.128.458-.194.273-.12.539-.245.8-.372.127-.061.255-.12.38-.182.385-.193.763-.392,1.132-.6l.01-.813c-.368.209-.746.408-1.131.6-.126.063-.255.121-.382.182-.264.127-.531.252-.8.372-.151.066-.3.13-.458.194-.256.107-.516.212-.778.312q-.241.093-.485.182-.4.146-.813.282c-.172.057-.343.115-.517.171-.131.041-.263.08-.4.12q-.362.108-.728.209c-.136.037-.272.075-.408.11-.258.067-.519.131-.779.193-.121.029-.24.059-.362.086-.381.087-.775.168-1.162.242v.813c.387-.074.77-.155,1.152-.242.121-.027.239-.057.359-.085q.392-.093.781-.194c.137-.036.273-.073.408-.11.245-.067.487-.137.728-.209.132-.04.265-.079.4-.12.068-.022.138-.041.2-.063.105-.033.207-.073.312-.108q.41-.136.813-.282Q267.116,223.662,267.357,223.569Z" transform="translate(-230.094 -194.44)" fill="#e2a029"/>
        <g id="Group_104" data-name="Group 104" transform="translate(28.702 22.994)">
          <path id="Path_80" data-name="Path 80" d="M270.4,220.444a30.186,30.186,0,0,1-9.192,3.255l-2.932-4.9a19.05,19.05,0,0,0,5.783-2.018Z" transform="translate(-258.276 -216.783)" fill="#ffbe3d"/>
        </g>
        <path id="Path_81" data-name="Path 81" d="M256.33,223.678c-.24.04-.48.081-.722.115-.282.041-.565.074-.849.109-.241.03-.482.061-.725.087-.447.046-.9.086-1.349.117l-.121.01c-.5.034-1,.056-1.5.071-.127,0-.256.005-.383.008q-.555.011-1.111.009l-.46-.005c-.409-.007-.818-.019-1.228-.038-.077,0-.155-.005-.233-.009-.482-.025-.964-.059-1.443-.1-.126-.011-.253-.025-.379-.036q-.558-.055-1.111-.123l-.4-.051c-.478-.065-.954-.135-1.426-.217l-.009,0c-.469-.081-.932-.174-1.393-.272-.164-.036-.327-.074-.49-.111-.317-.072-.631-.147-.942-.228q-.256-.065-.51-.134c-.269-.074-.536-.153-.8-.233-.244-.074-.487-.148-.728-.227s-.488-.165-.729-.25-.473-.169-.706-.257c-.354-.136-.706-.274-1.049-.421l-.1-.042c-.4-.175-.8-.36-1.183-.551-.093-.046-.187-.093-.279-.14-.388-.2-.77-.4-1.14-.613l-.01,1.518c.37.213.752.416,1.14.612l.279.141c.387.19.78.375,1.183.55l.1.042c.254.109.51.217.77.318.092.036.187.067.279.1.233.09.47.175.708.259s.481.169.726.249.486.154.73.227c.149.045.295.1.444.138.117.033.238.061.356.094q.255.069.512.135c.311.08.624.155.94.227.163.037.326.076.491.111.072.015.142.033.214.048q.585.121,1.178.223l.014,0q.585.1,1.175.185c.082.012.165.02.246.031l.4.051q.553.069,1.11.123c.127.012.252.025.38.036.065.005.129.014.194.019q.621.051,1.247.082c.079,0,.158.006.238.009.291.014.583.027.875.035.116,0,.233,0,.348,0l.461.005q.555,0,1.111-.009c.128,0,.256,0,.384-.008l.154,0q.676-.023,1.349-.069l.121-.01c.4-.027.794-.059,1.189-.1.054-.005.107-.013.161-.019.243-.025.484-.057.725-.087.284-.035.567-.068.848-.109.242-.035.482-.076.723-.115.207-.034.416-.063.622-.1l.412-.077.01-1.517C257.022,223.567,256.676,223.621,256.33,223.678Z" transform="translate(-225.731 -194.296)" fill="#7974f5"/>
        <g id="Group_105" data-name="Group 105" transform="translate(7.092 22.181)">
          <path id="Path_82" data-name="Path 82" d="M254.435,217.948l2.932,4.9c-8.328,1.6-17.886.483-24.541-3.359l6.3-3.661C243.277,218.223,249.231,218.928,254.435,217.948Z" transform="translate(-232.825 -215.826)" fill="#b391ff"/>
        </g>
      </g>
    </g>
    <g id="Group_137" data-name="Group 137" transform="translate(157.287)">
      <g id="Group_126" data-name="Group 126">
        <g id="Group_110" data-name="Group 110">
          <path id="Path_83" data-name="Path 83" d="M272.778,53.007l-.191-.107c-.082-.044-.165-.087-.246-.127s-.163-.079-.244-.115-.16-.07-.239-.1-.162-.063-.243-.091l-.046-.015-.018-.006c-.059-.02-.118-.04-.177-.058-.083-.025-.166-.048-.248-.068s-.165-.039-.245-.055-.176-.031-.262-.043c-.06-.008-.118-.012-.177-.018l-.026,0-.065-.007c-.1-.006-.188-.009-.281-.009s-.209.006-.312.015a3.032,3.032,0,0,0-.345.05l-.008,0-.011,0a3.116,3.116,0,0,0-.4.11,2.86,2.86,0,0,0-.485.225l-3.975,2.31a2.943,2.943,0,0,1,.884-.335l.012,0a3.559,3.559,0,0,1,1.01-.052l.027,0a4.87,4.87,0,0,1,1.108.242l.018.006a6.963,6.963,0,0,1,1.209.557l111.058,64.119,3.975-2.31Z" transform="translate(-262.57 -52.183)" fill="#4c4f4e"/>
          <path id="Path_84" data-name="Path 84" d="M410.309,138.753c0-.1-.008-.194-.014-.29s-.014-.194-.023-.292-.02-.2-.033-.295-.027-.2-.042-.3l0-.008v-.007c-.015-.1-.032-.192-.05-.289s-.041-.208-.064-.312-.047-.21-.073-.314-.054-.212-.084-.318c-.023-.082-.047-.165-.072-.247l-.005-.02-.015-.05q-.047-.155-.1-.311c-.034-.1-.07-.2-.106-.306s-.072-.2-.11-.292-.076-.194-.117-.291c-.031-.075-.063-.149-.1-.223l-.006-.014-.022-.05q-.064-.146-.133-.29c-.049-.106-.1-.211-.152-.315-.06-.121-.122-.239-.185-.359s-.142-.254-.214-.38c-.013-.023-.024-.045-.037-.067s-.029-.053-.044-.08c-.142-.24-.29-.477-.445-.708-.122-.183-.249-.364-.38-.541-.087-.118-.176-.235-.267-.35-.076-.1-.153-.192-.231-.285s-.154-.183-.232-.271-.155-.174-.233-.259c-.016-.017-.032-.032-.048-.049l-.017-.018c-.06-.064-.12-.127-.181-.189q-.125-.127-.252-.25c-.087-.084-.175-.166-.264-.245s-.177-.157-.267-.233c-.045-.038-.09-.074-.136-.11l-.031-.025c-.033-.027-.067-.056-.1-.082-.087-.069-.175-.136-.263-.2s-.173-.126-.261-.185-.17-.115-.256-.169-.169-.105-.254-.155l-.059-.035-3.975,2.31a9.232,9.232,0,0,1,1.194.829l.03.024a11.436,11.436,0,0,1,1.1,1.028l.017.018a13.992,13.992,0,0,1,1.879,2.543l.037.067a14.379,14.379,0,0,1,.7,1.393l.008.017a13.2,13.2,0,0,1,.543,1.471l.006.02a11.423,11.423,0,0,1,.342,1.481v.006a9.229,9.229,0,0,1,.118,1.457l-.216,75.881a6.733,6.733,0,0,1-.122,1.292l-.008.037a4.77,4.77,0,0,1-.338,1.056l-.009.02a3.548,3.548,0,0,1-.45.7c-.055.069-.108.143-.166.206a2.957,2.957,0,0,1-.655.54l3.975-2.31a2.938,2.938,0,0,0,.656-.541c.059-.063.111-.136.166-.205a3.383,3.383,0,0,0,.217-.267,3.882,3.882,0,0,0,.226-.411l.008-.019.008-.019c.045-.1.088-.2.128-.3s.072-.207.1-.316.056-.2.08-.307c.009-.042.018-.087.026-.132l.008-.037c.009-.042.018-.083.026-.126.016-.093.03-.189.042-.287s.022-.19.03-.289.014-.188.018-.284.006-.192.007-.29V214.9l.215-75.881C410.314,138.933,410.312,138.843,410.309,138.753Z" transform="translate(-283.071 -63.728)" fill="#4c4f4e"/>
          <g id="Group_109" data-name="Group 109" transform="translate(0 2.311)">
            <g id="Group_108" data-name="Group 108">
              <path id="Path_85" data-name="Path 85" d="M379.51,119.847a13.17,13.17,0,0,1,5.977,10.353l-.216,75.881c-.01,3.808-2.7,5.342-6.017,3.428L268.2,145.391a13.167,13.167,0,0,1-5.977-10.353l.215-75.882c.011-3.807,2.7-5.341,6.016-3.429Z" transform="translate(-262.221 -54.904)" fill="#4c4f4e"/>
            </g>
          </g>
        </g>
        <g id="Group_111" data-name="Group 111" transform="translate(48.241 15.727)">
          <path id="Path_86" data-name="Path 86" d="M355.9,91.118a4.138,4.138,0,0,1,1.879,3.254l-.067,23.851c0,1.2-.85,1.679-1.892,1.077L320.916,99.147a4.138,4.138,0,0,1-1.879-3.254l.068-23.852c0-1.2.849-1.679,1.891-1.077Z" transform="translate(-319.037 -70.705)" fill="#2689fd"/>
        </g>
        <g id="Group_114" data-name="Group 114" transform="translate(12.239 21.76)">
          <g id="Group_112" data-name="Group 112" transform="translate(0.015)">
            <path id="Path_87" data-name="Path 87" d="M283.423,81.607l0,1.083a.83.83,0,0,1-1.246.715l-5.107-2.963a.829.829,0,0,1-.413-.72l0-1.083a.83.83,0,0,1,1.246-.715l5.107,2.963A.828.828,0,0,1,283.423,81.607Z" transform="translate(-276.654 -77.811)" fill="#fff"/>
          </g>
          <g id="Group_113" data-name="Group 113" transform="translate(0 5.387)">
            <path id="Path_88" data-name="Path 88" d="M299.576,97.273l0,1.085a.829.829,0,0,1-1.244.716L277.051,86.789a.828.828,0,0,1-.415-.72l0-1.085a.829.829,0,0,1,1.244-.716l21.278,12.285A.83.83,0,0,1,299.576,97.273Z" transform="translate(-276.636 -84.156)" fill="#1ae5ff"/>
          </g>
        </g>
        <path id="Path_89" data-name="Path 89" d="M273.1,140.6l8.471-4.32,5.541,8.951,6.18,6.287,6.18-3.729,13.213-4.262,5.967,8.524,5.967,4.9,5.434,7.992,7.352-15.45,8.951,4.262,4.688-3.836,9.7,2.557,14.385-1.279" transform="translate(-263.862 -64.876)" fill="none" stroke="#16c5dc" stroke-miterlimit="10" stroke-width="1"/>
        <g id="Group_117" data-name="Group 117" transform="translate(51.234 25.853)">
          <g id="Group_115" data-name="Group 115">
            <path id="Path_90" data-name="Path 90" d="M330.652,83.733c-3.216-1.856-6.26-1.382-7.518,1.544-1.574,3.658.216,9.819,4,14.082l.88-2.046c-2.567-2.995-3.762-7.226-2.674-9.757.888-2.062,3.033-2.4,5.3-1.087a9.2,9.2,0,0,1,1.662,1.249l.879-2.046A13.249,13.249,0,0,0,330.652,83.733Z" transform="translate(-322.563 -82.632)" fill="#f1f1f1"/>
          </g>
          <g id="Group_116" data-name="Group 116" transform="translate(4.576 3.04)">
            <path id="Path_91" data-name="Path 91" d="M334,86.212l-.878,2.045c.138.129.277.264.413.406,2.917,3.006,4.342,7.623,3.185,10.317-.043.1-.087.188-.136.28-.016.032-.035.064-.053.1-.844,1.485-2.461,1.848-4.253,1.129a6.593,6.593,0,0,1-.852-.416c-.076-.044-.153-.091-.23-.138-.14-.087-.247-.16-.352-.231l-.048-.034c-.23-.163-.458-.339-.689-.536l-.087-.076c-.085-.074-.169-.15-.254-.229-.031-.029-.063-.057-.094-.088-.11-.1-.221-.212-.329-.323-.177-.183-.346-.369-.511-.56l-.88,2.046c.168.188.337.374.512.554.156.16.312.314.471.463.044.042.088.085.134.127.12.111.241.22.363.326l.121.106c.326.277.655.532.981.761.026.019.051.036.077.053.149.105.3.2.446.3l.052.031c.1.064.2.124.3.183q.362.209.721.38c.18.085.35.158.52.226,2.734,1.084,5.182.4,6.276-2.147,1.643-3.82-.38-10.374-4.516-14.636Q334.207,86.409,334,86.212Z" transform="translate(-327.952 -86.212)" fill="#fdb913"/>
          </g>
        </g>
        <g id="Group_122" data-name="Group 122" transform="translate(70.491 37.976)">
          <g id="Group_118" data-name="Group 118" transform="translate(0.027)">
            <path id="Path_92" data-name="Path 92" d="M349.187,99.1l0,.626a.479.479,0,0,1-.72.413l-2.951-1.713a.477.477,0,0,1-.239-.416l0-.626a.479.479,0,0,1,.72-.413l2.951,1.712A.479.479,0,0,1,349.187,99.1Z" transform="translate(-345.275 -96.91)" fill="#fff"/>
          </g>
          <g id="Group_119" data-name="Group 119" transform="translate(0.018 3.113)">
            <path id="Path_93" data-name="Path 93" d="M358.523,108.158l0,.627a.479.479,0,0,1-.719.413l-12.3-7.1a.48.48,0,0,1-.24-.417l0-.627a.48.48,0,0,1,.719-.414l12.3,7.1A.478.478,0,0,1,358.523,108.158Z" transform="translate(-345.264 -100.577)" fill="#fff"/>
          </g>
          <g id="Group_120" data-name="Group 120" transform="translate(0 9.345)" opacity="0.53">
            <path id="Path_94" data-name="Path 94" d="M353.431,112.571l0,.627a.478.478,0,0,1-.718.413l-7.228-4.172a.48.48,0,0,1-.24-.417l0-.627a.479.479,0,0,1,.718-.414l7.228,4.173A.478.478,0,0,1,353.431,112.571Z" transform="translate(-345.243 -107.916)" fill="#fff"/>
          </g>
          <g id="Group_121" data-name="Group 121" transform="translate(0.009 6.229)">
            <path id="Path_95" data-name="Path 95" d="M356.605,110.727l0,.627a.479.479,0,0,1-.718.414l-10.392-6a.478.478,0,0,1-.239-.416l0-.627a.479.479,0,0,1,.719-.413l10.391,6A.478.478,0,0,1,356.605,110.727Z" transform="translate(-345.254 -104.246)" fill="#58affb"/>
          </g>
        </g>
        <g id="Group_125" data-name="Group 125" transform="translate(104.77 77.561)">
          <g id="Group_123" data-name="Group 123">
            <path id="Path_96" data-name="Path 96" d="M392.133,144.42c-3.582-2.068-6.505-.4-6.517,3.715a14.258,14.258,0,0,0,6.475,11.2c3.583,2.068,6.49.411,6.5-3.705A14.258,14.258,0,0,0,392.133,144.42Z" transform="translate(-385.616 -143.531)" fill="#ff4272"/>
          </g>
          <g id="Group_124" data-name="Group 124" transform="translate(3.555 4.573)">
            <path id="Path_97" data-name="Path 97" d="M392.749,149.319c-1.619-.935-2.941-.182-2.946,1.679a6.445,6.445,0,0,0,2.928,5.062c1.62.935,2.934.186,2.939-1.675A6.446,6.446,0,0,0,392.749,149.319Z" transform="translate(-389.803 -148.917)" fill="#212973"/>
          </g>
        </g>
      </g>
      <g id="Group_131" data-name="Group 131" transform="translate(12.483 35.681)">
        <g id="Group_127" data-name="Group 127">
          <path id="Path_98" data-name="Path 98" d="M283.911,98.1V99.22a.856.856,0,0,1-1.282.742l-5.277-3.041a.855.855,0,0,1-.429-.741V95.064a.855.855,0,0,1,1.282-.741l5.278,3.04A.856.856,0,0,1,283.911,98.1Z" transform="translate(-276.923 -94.207)" fill="#1ce5ff"/>
        </g>
        <g id="Group_128" data-name="Group 128" transform="translate(0.001 5.556)">
          <path id="Path_99" data-name="Path 99" d="M300.622,114.212v1.119a.856.856,0,0,1-1.281.742l-21.987-12.6a.857.857,0,0,1-.43-.741v-1.12a.856.856,0,0,1,1.281-.742l21.987,12.6A.856.856,0,0,1,300.622,114.212Z" transform="translate(-276.924 -100.751)" fill="#1ce5ff"/>
        </g>
        <g id="Group_129" data-name="Group 129" transform="translate(0.004 16.677)" opacity="0.53">
          <path id="Path_100" data-name="Path 100" d="M291.56,122.113v1.119a.856.856,0,0,1-1.281.742l-12.922-7.407a.856.856,0,0,1-.43-.742v-1.119a.854.854,0,0,1,1.28-.742l12.922,7.407A.855.855,0,0,1,291.56,122.113Z" transform="translate(-276.928 -113.849)" fill="#1ce5ff"/>
        </g>
        <g id="Group_130" data-name="Group 130" transform="translate(0.003 11.117)">
          <path id="Path_101" data-name="Path 101" d="M297.214,118.806v1.12a.856.856,0,0,1-1.281.742l-18.578-10.65a.857.857,0,0,1-.43-.742v-1.119a.855.855,0,0,1,1.28-.742l18.578,10.65A.855.855,0,0,1,297.214,118.806Z" transform="translate(-276.926 -107.3)" fill="#1ce5ff"/>
        </g>
      </g>
      <g id="Group_136" data-name="Group 136" transform="translate(78.665 114.091)">
        <g id="Group_135" data-name="Group 135">
          <g id="Group_134" data-name="Group 134" style="isolation: isolate">
            <g id="Group_132" data-name="Group 132" transform="translate(16.611 18.352)">
              <path id="Path_102" data-name="Path 102" d="M374.491,209.911l3-1.742-.058,20.352-3,1.742Z" transform="translate(-374.433 -208.169)" fill="#00a935"/>
            </g>
            <path id="Path_103" data-name="Path 103" d="M379.358,206.106v-.049l0-.025,0-.025,0-.025,0-.026-.005-.026,0-.006v0l-.005-.02-.007-.026-.008-.028-.009-.027-.008-.025-.01-.026-.01-.026-.012-.026-.012-.027-.014-.027h0l-9.332-18.578-.012-.022-.025-.046-.046-.072-.031-.042-.022-.029-.02-.025-.02-.024-.011-.012v0l-.008-.009-.022-.022-.022-.022-.024-.022-.024-.021-.024-.02-.023-.017-.023-.017-.023-.014-.022-.014-.005,0-.017-.01-.021-.011-.021-.01-.022-.008-.021-.008-.021-.007-.022-.006-.022-.005-.023,0-.008,0h-.066l-.03,0a.225.225,0,0,0-.036.01.291.291,0,0,0-.044.02l-3,1.742a.286.286,0,0,1,.176-.033h0a.522.522,0,0,1,.2.07.925.925,0,0,1,.22.182v0a1.234,1.234,0,0,1,.186.272l9.332,18.578a1.176,1.176,0,0,1,.1.261h0a.772.772,0,0,1,.02.228h0a.459.459,0,0,1-.048.177l0,0a.28.28,0,0,1-.1.113l3-1.742a.268.268,0,0,0,.09-.087c.005-.008.009-.017.014-.025l0,0,.005-.008c.005-.011.009-.021.014-.033l.009-.027.008-.028.005-.025,0-.026,0-.024v0h0v-.044Z" transform="translate(-356.569 -186.555)" fill="#61e041"/>
            <g id="Group_133" data-name="Group 133" transform="translate(0 1.742)">
              <path id="Path_104" data-name="Path 104" d="M364.806,188.679a1.106,1.106,0,0,1,.407.455l9.332,18.578c.276.553.03,1-.41.745l-2.6-1.5-.058,20.352-13.633-7.871.058-20.353-2.509-1.449c-.446-.257-.689-.985-.405-1.215l9.407-7.76A.356.356,0,0,1,364.806,188.679Z" transform="translate(-354.869 -188.607)" fill="#00cc41"/>
            </g>
          </g>
        </g>
      </g>
    </g>
    <g id="Group_165" data-name="Group 165" transform="translate(149.128 141.07)">
      <g id="Group_145" data-name="Group 145" transform="translate(0 11.416)">
        <g id="Group_138" data-name="Group 138">
          <path id="Path_105" data-name="Path 105" d="M252.612,238.587l26.97,27.529,26.194-6.81-26.97-27.529Z" transform="translate(-252.612 -231.776)" fill="#fff"/>
        </g>
        <g id="Group_144" data-name="Group 144" transform="translate(13.463 5.849)">
          <g id="Group_142" data-name="Group 142" transform="translate(2.269)" style="isolation: isolate">
            <g id="Group_139" data-name="Group 139" transform="translate(0.779)">
              <path id="Path_106" data-name="Path 106" d="M284.5,241.312l-2.582.977a8.614,8.614,0,0,0-7.586-1.2c-.047.018-.091.037-.137.055l-2.143-1.763c.046-.019.092-.037.139-.054A13.891,13.891,0,0,1,284.5,241.312Z" transform="translate(-272.057 -238.665)" fill="#e2edff"/>
            </g>
            <g id="Group_140" data-name="Group 140" transform="translate(10.967 2.923)">
              <path id="Path_107" data-name="Path 107" d="M286.643,242.107c2.506,2.217,2.36,4.875-.186,6.424l-2.208-1.817c1.167-.959,1.14-2.4-.192-3.63Z" transform="translate(-284.057 -242.107)" fill="#e2edff"/>
            </g>
            <g id="Group_141" data-name="Group 141" transform="translate(0 7.07)">
              <path id="Path_108" data-name="Path 108" d="M284.162,249.465a7.726,7.726,0,0,1-.851.381,13.929,13.929,0,0,1-12.171-1.876l2.585-.977a8.647,8.647,0,0,0,7.445,1.092,4.306,4.306,0,0,0,.818-.408Z" transform="translate(-271.14 -246.992)" fill="#3eabff"/>
            </g>
          </g>
          <g id="Group_143" data-name="Group 143" transform="translate(0 0.882)">
            <path id="Path_109" data-name="Path 109" d="M273.285,241.476c-1.81.944-1.971,2.7-.3,4.145l-2.582.977c-2.851-2.419-2.5-5.4.731-6.894Z" transform="translate(-268.468 -239.704)" fill="#3eabff"/>
          </g>
        </g>
      </g>
      <g id="Group_149" data-name="Group 149" transform="translate(25.301 93.964)">
        <g id="Group_146" data-name="Group 146" transform="translate(0 58.265)">
          <path id="Path_110" data-name="Path 110" d="M283.391,400.173s-2.115,1.454-.132,4.89,3.7,1.322,8.194,4.758,6.079,4.1,8.458,3.833,3.834-1.454,4.23-2.776-.793-3.569-.793-3.569Z" transform="translate(-282.41 -398.006)" fill="#94a3c0"/>
          <path id="Path_111" data-name="Path 111" d="M302.527,399.919s.925,4.494,1.454,7.93c.132,1.586-1.983,3.744-5.022,3.613s-4.758-1.058-5.815-2.379-7.665-3.877-8.855-4.935-1.454-4.229-.925-5.022a3.99,3.99,0,0,1,4.626-1.19c2.115.925,3.833,2.643,8.063,2.908A13.09,13.09,0,0,0,302.527,399.919Z" transform="translate(-282.515 -397.621)" fill="#382747"/>
        </g>
        <g id="Group_148" data-name="Group 148" transform="translate(20.97 0.585)">
          <g id="Group_147" data-name="Group 147" transform="translate(0 46.225)">
            <path id="Path_112" data-name="Path 112" d="M308.089,386.682s-2.115,1.454-.132,4.89,3.7,1.322,8.194,4.758,6.08,4.1,8.459,3.833,3.833-1.454,4.229-2.776-.793-3.568-.793-3.568Z" transform="translate(-307.108 -384.516)" fill="#94a3c0"/>
            <path id="Path_113" data-name="Path 113" d="M327.225,386.429s.925,4.494,1.454,7.93c.132,1.586-1.983,3.745-5.023,3.613s-4.757-1.057-5.815-2.379-7.665-3.877-8.855-4.934-1.454-4.23-.926-5.022a3.99,3.99,0,0,1,4.627-1.19c2.114.925,3.833,2.643,8.062,2.907A13.091,13.091,0,0,0,327.225,386.429Z" transform="translate(-307.213 -384.13)" fill="#382747"/>
          </g>
          <path id="Path_114" data-name="Path 114" d="M311.23,341.645c1.058,8.458,5.287,30.663,5.992,38.417,0,0,1.763,2.82,7.049,2.114l2.509-1.045a2.432,2.432,0,0,0,1.483-2.546c-.532-4.276-1.728-15.043-1.172-21.432.7-8.106-1.41-13.04-1.41-13.04.177-2.643.529-11.807-4.757-14.274,0,0-12.953-2.379-9.693,11.807" transform="translate(-307.651 -329.688)" fill="#14347c"/>
        </g>
        <path id="Path_115" data-name="Path 115" d="M318.314,333.611l-1.41,2.82s-21.675,1.057-27.49,7.4c0,0-3.877.7-2.82,9.164s5.286,30.662,5.992,38.416c0,0,1.762,2.82,7.049,2.115l2.509-1.045a2.432,2.432,0,0,0,1.482-2.546c-.531-4.276-1.728-15.043-1.173-21.432.706-8.106-1.409-13.041-1.409-13.041a110.788,110.788,0,0,1,19.737,5.992c10.22,4.229,19.032-.7,22.909-2.82a25.228,25.228,0,0,0,5.286-3.524,16.118,16.118,0,0,0,9.516-3.877c4.582-3.877,5.287-14.1.352-20.089S318.314,333.611,318.314,333.611Z" transform="translate(-283.014 -328.999)" fill="#18388f"/>
      </g>
      <g id="Group_151" data-name="Group 151" transform="translate(59.673 30.732)">
        <path id="Path_116" data-name="Path 116" d="M333.117,268.8s3.5-1.3,3.272-5.977c-1.063-4.607-2.349-4.918-2.349-4.918s4.9-4.527,10.81-3.1c0,0,3.65,7.407,7.779,10.579C352.63,265.383,349.33,274.086,333.117,268.8Z" transform="translate(-324.436 -254.526)" fill="#ce7c56"/>
        <g id="Group_150" data-name="Group 150" transform="translate(0 5.638)">
          <path id="Path_117" data-name="Path 117" d="M340.1,272.47s12.953-10.838,15.6-11.1c3.171-.264,7.136.793,8.194,5.287a8.3,8.3,0,0,1-3.7,9.251c-2.379,1.322-23.261,11.366-26.962,11.366s-6.079-3.172-3.7-7.137S340.1,272.47,340.1,272.47Z" transform="translate(-323.749 -261.191)" fill="#e2a029"/>
          <path id="Path_118" data-name="Path 118" d="M343.2,265.6s-13.745,4.582-17.622,10.926-3.172,13.393-.352,23.262-2.82,18.679-1.409,23.966,11.278,10.221,25.728,7.755,15.507-8.107,16.565-11.279-2.82-18.327.7-30.662-3.524-20.794-6.344-22.909S352.016,261.72,343.2,265.6Z" transform="translate(-322.893 -261.544)" fill="#ffbe3d"/>
          <path id="Path_119" data-name="Path 119" d="M360.59,266.654c-2.82-2.114-8.458-4.934-17.27-1.057,0,0-13.745,4.582-17.622,10.926a17.8,17.8,0,0,0-2.041,4.767c5.566-7.234,13.464-10.411,18.606,1.929,4.8,11.517-7.41,45.367-18.077,34.724a13.221,13.221,0,0,0-.25,5.807c1.409,5.287,11.278,10.221,25.728,7.755s15.507-8.107,16.565-11.279-2.82-18.327.7-30.662S363.409,268.769,360.59,266.654Z" transform="translate(-323.008 -261.544)" fill="#e2a029"/>
          <path id="Path_120" data-name="Path 120" d="M331.353,271.211s3.7,2.379,12.953,1.057,9.78-7.93,8.987-8.458a17.262,17.262,0,0,1-2.379-2.644s-9.78,4.494-13.216,5.816-5.287,2.114-5.287,2.114Z" transform="translate(-324.17 -261.166)" fill="#fff"/>
        </g>
      </g>
      <g id="Group_152" data-name="Group 152" transform="translate(59.346)">
        <path id="Path_121" data-name="Path 121" d="M324.184,236.555s-.793,9.516,4.23,15.86,10.044,2.643,13.217,1.057,4.493-4.229,5.551-11.895,1.057-15.067-4.494-17.447-11.631-2.907-15.067,2.908S324.184,236.555,324.184,236.555Z" transform="translate(-322.754 -218.952)" fill="#ffaa83"/>
        <path id="Path_122" data-name="Path 122" d="M327.639,224.567s-4.494,3.436-4.229,8.458-1.322,5.815-.793,8.458,4.758,3.437,5.022,7.137,5.815,5.022,8.723,6.079,7.665-2.378,8.987-4.229,1.057-6.608,2.643-10.837.793-9.516-.529-13.217-3.965-4.494-3.965-4.494a6.445,6.445,0,0,0-4.493-3.436C335.833,217.958,326.053,218.487,327.639,224.567Z" transform="translate(-322.508 -218.331)" fill="#4d2c63"/>
      </g>
      <g id="Group_163" data-name="Group 163" transform="translate(40.279 59.893)">
        <g id="Group_162" data-name="Group 162">
          <g id="Group_161" data-name="Group 161" transform="translate(16.022 77.657)">
            <g id="Group_155" data-name="Group 155" transform="translate(0 9.524)">
              <g id="Group_154" data-name="Group 154" style="isolation: isolate">
                <path id="Path_123" data-name="Path 123" d="M369.459,409.616c-.48,5.334-5.5,8.956-10.027,10.907a38.493,38.493,0,0,1-15.705,2.914,37.374,37.374,0,0,1-15.962-3.538c-4.3-2.114-8.858-5.95-8.844-11.167-.01,3.8.256,6.938,2.993,9.9,3.524,3.818,8.83,5.875,13.821,6.9,9.738,2.011,23,1.039,30.393-6.457,2.976-3.016,3.383-6.195,3.394-10.207Q369.507,409.248,369.459,409.616Z" transform="translate(-318.921 -394.143)" fill="#b7bac1"/>
                <g id="Group_153" data-name="Group 153" transform="translate(0)">
                  <path id="Path_124" data-name="Path 124" d="M362.048,395.841c9.912,5.723,9.976,15,.128,20.726s-25.88,5.723-35.792,0-9.953-15-.1-20.725S352.136,390.119,362.048,395.841Z" transform="translate(-318.921 -391.55)" fill="#ebedec"/>
                </g>
              </g>
            </g>
            <g id="Group_160" data-name="Group 160" transform="translate(21.982)">
              <g id="Group_159" data-name="Group 159" style="isolation: isolate">
                <g id="Group_156" data-name="Group 156" transform="translate(3.894 2.248)">
                  <path id="Path_125" data-name="Path 125" d="M353.329,382.98l-.063,22.116-3.869,2.248.063-22.116Z" transform="translate(-349.398 -382.98)" fill="#c2c2c2"/>
                </g>
                <g id="Group_157" data-name="Group 157" transform="translate(0 2.248)">
                  <path id="Path_126" data-name="Path 126" d="M348.768,385.229l-.063,22.116-3.894-2.248.063-22.116Z" transform="translate(-344.811 -382.98)" fill="#b7bac1"/>
                </g>
                <g id="Group_158" data-name="Group 158" transform="translate(0.063)">
                  <path id="Path_127" data-name="Path 127" d="M352.648,382.581l-3.869,2.248-3.894-2.248,3.869-2.248Z" transform="translate(-344.885 -380.332)" fill="#4da5dc"/>
                </g>
              </g>
            </g>
          </g>
          <path id="Path_128" data-name="Path 128" d="M390.987,293.264a4.548,4.548,0,0,0-6.049-4.134c-12.643,4.436-41.62,14.938-43.482,18.661-1.774,3.548-7.507,23.369-10.329,33.3a4.547,4.547,0,0,1-6.691,2.668l-17.515-10.329a4.554,4.554,0,0,0-6.805,4.672l2.812,16.872a4.556,4.556,0,0,0,2.224,3.2l18.74,10.765a36.033,36.033,0,0,0,34.065.984L372.4,362.7a36.035,36.035,0,0,0,19.9-33.548Z" transform="translate(-300.051 -288.87)" fill="#c35a2c"/>
        </g>
        <path id="Path_129" data-name="Path 129" d="M341.456,311.008c-1.774,3.548-7.507,23.369-10.329,33.3a4.548,4.548,0,0,1-6.691,2.668l-17.515-10.329a4.554,4.554,0,0,0-6.805,4.672l2.812,16.872a4.512,4.512,0,0,0,.357,1.121q.335.527.677,1.051a4.514,4.514,0,0,0,1.19,1.028l18.74,10.765a35.99,35.99,0,0,0,12.675,4.4c15.2-11.794,13.284-61.028,7.772-65.162a7.613,7.613,0,0,0-2.171-1.2A2.975,2.975,0,0,0,341.456,311.008Z" transform="translate(-300.051 -292.088)" fill="#dc7d39"/>
      </g>
      <g id="Group_164" data-name="Group 164" transform="translate(13.288 32.612)">
        <path id="Path_130" data-name="Path 130" d="M306.889,291.564s12.952-10.837,15.6-11.1c3.172-.265,7.136.793,8.194,5.286a8.3,8.3,0,0,1-3.7,9.251c-2.379,1.322-23.261,11.366-26.962,11.366s-6.079-3.172-3.7-7.136S306.889,291.564,306.889,291.564Z" transform="translate(-272.353 -260.314)" fill="#ffbe3d"/>
        <path id="Path_131" data-name="Path 131" d="M284.559,270.807a9.511,9.511,0,0,1-.793-2.247c-.132-.925.4-2.115-.132-4.229s-1.454-3.965-1.851-5.419c-1.057-1.322-1.983,1.057-1.19,3.04s.529,3.172-.264,3.3-4.1-1.85-5.022-2.907-6.212-6.212-6.741-5.551-.529,1.322,1.322,3.3,2.511,2.907,2.643,3.436a8.752,8.752,0,0,0,.661,2.643c.661,1.586.132,2.643,1.322,4.1s3.436,1.719,4.493,2.644l1.058.925Z" transform="translate(-268.263 -256.739)" fill="#ffaa83"/>
        <path id="Path_132" data-name="Path 132" d="M297.757,305.088s-5.551,1.058-8.547-5.111-8.106-22.733-8.811-24.318a6.677,6.677,0,0,1,6.168-3.7s4.934,9.692,7.754,14.1S307.185,303.326,297.757,305.088Z" transform="translate(-270.095 -259.036)" fill="#ffbe3d"/>
      </g>
    </g>
    <g id="Group_168" data-name="Group 168" transform="translate(20.428 103.429)">
      <g id="Group_166" data-name="Group 166" transform="translate(53.932 1.98)">
        <path id="Path_133" data-name="Path 133" d="M204.6,185.586s1.723-1.1,2.742-.783a44.52,44.52,0,0,0,5.638.94c1.1.078,3.289-1.88,3.681-2.193s.627-1.018,1.1-1.488.7-.391.7-1.253.861-1.645,1.253-2.036,1.957-1.331,1.8-2.036-.94-.313-1.409-.157-2.271,1.8-3.054,2.271a9.751,9.751,0,0,1-3.6,1.175,7.738,7.738,0,0,1-1.8-.235s-.234,0,.7-.313a12.468,12.468,0,0,1,2.271-.235c.784-.156,1.175-.626,1.1-1.018s-1.1-.391-1.488-.391a30.882,30.882,0,0,1-3.681-.078c-.94-.156-2.506,1.409-2.819,1.723a7.511,7.511,0,0,1-2.82.862C204.055,180.417,204.6,185.586,204.6,185.586Z" transform="translate(-170.572 -176.33)" fill="#ff9f75"/>
        <path id="Path_134" data-name="Path 134" d="M164.881,185.072s1.639,5.408,8.492,5.2,23.9-3.366,25.631-3.477a6.677,6.677,0,0,0,.417-7.181s-10.876.126-16.086-.329S162.068,175.9,164.881,185.072Z" transform="translate(-164.553 -176.655)" fill="#e1e8f2"/>
      </g>
      <g id="Group_167" data-name="Group 167">
        <path id="Path_135" data-name="Path 135" d="M119.016,195.223s-2.865-16.644-4.709-18.556c-2.247-2.253-5.955-4.013-9.669-1.27a8.3,8.3,0,0,0-3.164,9.449c.959,2.546,10.383,23.716,13.2,26.11s6.688,1.515,7.439-3.048S119.016,195.223,119.016,195.223Z" transform="translate(-101.033 -173.998)" fill="#e1e8f2"/>
        <path id="Path_136" data-name="Path 136" d="M156.163,209.365s2.247.132,3.04.132,6.873-.529,7.93-.529,1.057,1.19,1.057,1.19a8.207,8.207,0,0,1,1.058,2.379,6.552,6.552,0,0,0,.264,2.247c.264.661-.132,1.19-.4,1.719s-.925.793-1.586,1.19a2.135,2.135,0,0,1-1.983.132c-.528-.264-.528-.4.132-.793a7.03,7.03,0,0,0,1.19-.925,3.628,3.628,0,0,1-1.983.925,8.543,8.543,0,0,1-4.1-.4l-2.907-1.454-2.115-.264Z" transform="translate(-109.294 -179.276)" fill="#ff9f75"/>
        <path id="Path_137" data-name="Path 137" d="M116.522,213.714s1.639,5.408,8.492,5.2,23.9-3.366,25.631-3.478a6.677,6.677,0,0,0,.417-7.181s-10.876.126-16.086-.328S113.709,204.544,116.522,213.714Z" transform="translate(-103.321 -178.998)" fill="#e1e8f2"/>
      </g>
    </g>
  </g>
</svg>
